<svg id="Layer_1" enable-background="new 0 0 512 512" height="512" viewBox="0 0 512 512" width="512" xmlns="http://www.w3.org/2000/svg"><g><path d="m215.833 200.833c-30.419 0-55.166 24.748-55.166 55.167 0 .904.025 1.802.068 2.695-24.766 1.374-44.493 21.952-44.493 47.055 0 25.989 21.144 47.133 47.133 47.133 4.653 0 9.147-.688 13.396-1.95-.009.49-.037.975-.037 1.467 0 43.708 35.559 79.267 79.267 79.267s79.267-35.559 79.267-79.267c0-.492-.028-.977-.037-1.466 4.249 1.262 8.742 1.95 13.395 1.95 25.989 0 47.133-21.144 47.133-47.133 0-25.103-19.727-45.68-44.492-47.055.043-.893.068-1.792.068-2.695 0-30.419-24.747-55.167-55.166-55.167-15.821 0-30.098 6.705-40.167 17.41-10.071-10.706-24.348-17.411-40.169-17.411zm-52.458 122.051c-9.447 0-17.133-7.686-17.133-17.133s7.686-17.133 17.133-17.133 17.134 7.686 17.134 17.133-7.687 17.133-17.134 17.133zm27.292-66.884c0-13.877 11.289-25.167 25.166-25.167s25.167 11.29 25.167 25.167-11.29 25.167-25.167 25.167-25.166-11.29-25.166-25.167zm157.957 32.617c9.447 0 17.133 7.686 17.133 17.133s-7.686 17.133-17.133 17.133-17.134-7.686-17.134-17.133 7.687-17.133 17.134-17.133zm-52.457-57.784c13.877 0 25.166 11.29 25.166 25.167s-11.289 25.167-25.166 25.167-25.167-11.29-25.167-25.167 11.29-25.167 25.167-25.167zm9.1 121.567c0 27.166-22.101 49.267-49.267 49.267s-49.267-22.101-49.267-49.267 22.101-49.267 49.267-49.267 49.267 22.101 49.267 49.267z"/><path d="m507.606 245.394-43.806-43.807v-186.587c0-8.284-6.716-15-15-15h-64.267c-8.284 0-15 6.716-15 15v92.321l-102.927-102.927c-5.857-5.858-15.355-5.858-21.213 0l-241 241c-5.858 5.858-5.858 15.355 0 21.213 5.857 5.858 15.355 5.858 21.213 0l22.594-22.594v252.987c0 8.284 6.716 15 15 15h385.6c8.284 0 15-6.716 15-15v-252.987l22.594 22.594c5.856 5.857 15.355 5.859 21.213 0 5.858-5.858 5.858-15.355-.001-21.213zm-73.806 236.606h-355.6v-267.987l177.8-177.8 177.8 177.8zm0-310.414-34.267-34.267v-107.319h34.267z"/></g></svg>