<svg id="Capa_1" enable-background="new 0 0 512.061 512.061" height="512" viewBox="0 0 512.061 512.061" width="512" xmlns="http://www.w3.org/2000/svg"><g id="XMLID_778_"><g id="XMLID_394_"><path id="XMLID_1531_" d="m126.207 376.873c-1.328 1.328-3.489 1.327-4.816 0-3.905-3.905-10.237-3.905-14.143 0-3.905 3.905-3.905 10.237 0 14.143 4.563 4.563 10.557 6.844 16.551 6.844s11.987-2.282 16.55-6.844c3.905-3.905 3.905-10.237 0-14.143-3.905-3.905-10.237-3.905-14.142 0z"/><path id="XMLID_1535_" d="m508.129 74.759c-3.906-6.766-10.214-11.606-17.761-13.628l-18.111-4.853 3.602-13.442c2.351-8.772 1.145-17.935-3.396-25.8s-11.873-13.491-20.645-15.841c-2.957-.793-5.929-1.161-8.854-1.156-.001-.003-.002-.006-.004-.009h-368.958c-5.523 0-10 4.477-10 10v96.143c0 5.523 4.477 10 10 10s10-4.477 10-10v-86.143h328.039c-.748 1.658-1.379 3.393-1.864 5.206l-3.654 13.637c-4.649-.286-9.011 2.722-10.263 7.395l-37.237 138.968h-207.021c-5.523 0-10 4.477-10 10s4.477 10 10 10h201.662l-9.217 34.397h-129.445c-5.523 0-10 4.477-10 10s4.477 10 10 10h124.086l-9.217 34.397h-33.869c-5.523 0-10 4.477-10 10s4.477 10 10 10h28.51l-1.413 5.272c-.431 1.606-.454 3.295-.067 4.913l15.029 62.888-5.124 19.125c-1.43 5.335 1.736 10.818 7.071 12.248.867.232 1.738.343 2.595.343 4.415 0 8.456-2.947 9.653-7.414l5.125-19.125 44.459-46.948c1.144-1.208 1.968-2.681 2.398-4.288l23.765-88.69v239.676h-182.278c-5.256-21.7-16.295-41.394-32.256-57.355-6.448-6.448-13.548-12.12-21.182-16.943 14.61-16.292 23.512-37.803 23.512-61.356 0-50.728-41.46-92-92.189-92-.126 0 .126.004 0 .005-4.369-.199-8.053-3.806-8.053-8.223 0-4.545 3.697-8.242 8.242-8.242 5.523 0 10-4.477 10-10s-4.477-10-10-10c-15.573 0-28.242 12.669-28.242 28.242 0 4.232.942 8.247 2.618 11.854-4.904 1.425-9.641 3.243-14.172 5.426v-77.265c0-5.523-4.477-10-10-10s-10 4.477-10 10v90.347c-19.698 16.886-32.202 41.938-32.203 69.856 0 23.553 8.901 45.064 23.511 61.356-7.635 4.823-14.735 10.496-21.182 16.943-17.979 17.98-29.731 40.69-33.984 65.677-.927 5.445 2.736 10.61 8.18 11.537.568.097 1.133.143 1.69.143 4.786 0 9.017-3.447 9.847-8.323 3.554-20.877 13.377-39.858 28.41-54.891 6.787-6.788 14.436-12.535 22.743-17.135 14.952 10.512 33.16 16.694 52.786 16.694s37.833-6.182 52.785-16.694c8.306 4.6 15.955 10.347 22.743 17.135 15.033 15.032 24.856 34.013 28.41 54.891.831 4.877 5.06 8.323 9.847 8.323.011 0 .023-.001.035-.001h200.383c5.523 0 10-4.477 10-10v-324.32l26.807-100.045 10.383 2.782c2.387.64 4.382 2.17 5.617 4.31s1.563 4.632.924 7.019l-29.979 111.886c-1.43 5.335 1.736 10.818 7.071 12.248.867.232 1.738.343 2.595.343 4.415 0 8.456-2.947 9.653-7.414l29.979-111.886c2.02-7.546.982-15.429-2.925-22.195zm-456.33 281.616c.001-39.542 32.465-71.732 71.947-71.989.157.003-.158.012 0 .012.106 0-.106-.013 0-.016 39.555.172 72.052 32.398 72.053 71.992 0 39.7-32.299 72-72 72.001-39.701 0-72-32.3-72-72zm403.343-329.34c1.87 3.239 2.367 7.012 1.399 10.624l-3.602 13.442-27.046-7.247 3.602-13.442c.968-3.612 3.285-6.631 6.523-8.501 3.239-1.87 7.014-2.365 10.623-1.398 3.612.967 6.631 3.284 8.501 6.522zm-101.331 339.925-7.424-31.066 29.386 7.874zm33.696-40.753-42.501-11.388 27.068-101.019 42.501 11.388zm32.244-120.338-42.501-11.388 35.74-133.378 42.5 11.388z"/><path id="XMLID_1543_" d="m269.596 425.19 3.994-3.928c1.336-1.326 3.506-1.32 4.837.011 4.425 4.424 10.308 6.861 16.565 6.861h10.676c5.523 0 10-4.477 10-10s-4.477-10-10-10h-10.676c-.916 0-1.777-.356-2.424-1.004-9.094-9.094-23.923-9.127-33.031-.1l-3.966 3.901c-3.937 3.873-3.989 10.205-.117 14.142 3.873 3.937 10.204 3.988 14.142.117z"/><path id="XMLID_1547_" d="m309.701 107.601c0-29.54-24.032-53.572-53.572-53.572s-53.572 24.032-53.572 53.572c0 29.539 24.032 53.571 53.572 53.571s53.572-24.032 53.572-53.571zm-87.144 0c0-18.512 15.06-33.572 33.572-33.572s33.572 15.06 33.572 33.572c0 18.511-15.06 33.571-33.572 33.571s-33.572-15.059-33.572-33.571z"/><path id="XMLID_1548_" d="m74.002 161.169c2.63 0 5.21-1.07 7.07-2.93s2.93-4.44 2.93-7.07-1.07-5.21-2.93-7.07-4.44-2.93-7.07-2.93-5.21 1.07-7.07 2.93-2.93 4.44-2.93 7.07 1.07 5.21 2.93 7.07 4.439 2.93 7.07 2.93z"/></g></g></svg>