<?xml version="1.0" encoding="UTF-8"?>
<svg xmlns="http://www.w3.org/2000/svg" xmlns:xlink="http://www.w3.org/1999/xlink" width="375pt" height="374.999991pt" viewBox="0 0 375 374.999991" version="1.2">
<defs>
<filter id="alpha" filterUnits="objectBoundingBox" x="0%" y="0%" width="100%" height="100%">
  <feColorMatrix type="matrix" in="SourceGraphic" values="0 0 0 0 1 0 0 0 0 1 0 0 0 0 1 0 0 0 1 0"/>
</filter>
<mask id="mask0">
  <g filter="url(#alpha)">
<rect x="0" y="0" width="375" height="374.999991" style="fill:rgb(0%,0%,0%);fill-opacity:0.4392;stroke:none;"/>
  </g>
</mask>
<clipPath id="clip2">
  <path d="M 25.632812 117.046875 L 176.605469 117.046875 L 176.605469 163.660156 L 25.632812 163.660156 Z M 25.632812 117.046875 "/>
</clipPath>
<clipPath id="clip3">
  <path d="M 12 0.0390625 L 178 0.0390625 L 178 157 L 12 157 Z M 12 0.0390625 "/>
</clipPath>
<clipPath id="clip4">
  <path d="M 0.917969 24 L 183.109375 24 L 183.109375 147.753906 L 0.917969 147.753906 Z M 0.917969 24 "/>
</clipPath>
<clipPath id="clip1">
  <rect x="0" y="0" width="184" height="164"/>
</clipPath>
<g id="surface5" clip-path="url(#clip1)">
<g clip-path="url(#clip2)" clip-rule="nonzero">
<path style=" stroke:none;fill-rule:nonzero;fill:rgb(24.308777%,22.349548%,22.749329%);fill-opacity:1;" d="M 31.070312 135.957031 L 25.859375 151.976562 C 25.859375 151.976562 51.113281 165.996094 88.519531 163.324219 C 125.929688 160.65625 176.03125 135.957031 176.03125 135.957031 L 166.011719 117.265625 C 166.011719 117.265625 93.195312 159.652344 31.070312 135.957031 "/>
</g>
<g clip-path="url(#clip3)" clip-rule="nonzero">
<path style=" stroke:none;fill-rule:nonzero;fill:rgb(24.308777%,22.349548%,22.749329%);fill-opacity:1;" d="M 124.925781 141.09375 C 86.648438 172.203125 47.90625 146.902344 47.90625 146.902344 C -3.867188 138.695312 17.042969 97.503906 17.042969 97.503906 C 12.902344 82.085938 18.3125 74.339844 18.3125 74.339844 C 17.691406 71.867188 17.335938 69.574219 17.171875 67.441406 C 15.824219 49.609375 28.867188 43.367188 28.867188 43.367188 C 32.644531 36 37.003906 29.914062 41.589844 24.878906 C 61.394531 3.136719 85.445312 1.113281 85.445312 1.113281 C 160.0625 -4.363281 173.691406 94.765625 173.691406 94.765625 C 194.132812 129.546875 124.925781 141.09375 124.925781 141.09375 "/>
</g>
<g clip-path="url(#clip4)" clip-rule="nonzero">
<path style=" stroke:none;fill-rule:nonzero;fill:rgb(24.308777%,22.349548%,22.749329%);fill-opacity:1;" d="M 124.792969 51.578125 C 125.058594 51.578125 125.261719 51.511719 125.460938 51.308594 C 125.863281 50.910156 125.929688 50.308594 125.527344 49.84375 C 113.167969 35.957031 96.9375 42.898438 96.738281 42.964844 C 96.203125 43.167969 96 43.765625 96.203125 44.300781 C 96.402344 44.835938 97.003906 45.035156 97.539062 44.835938 C 98.140625 44.566406 112.632812 38.425781 123.992188 51.242188 C 124.191406 51.445312 124.527344 51.578125 124.792969 51.578125 Z M 50.578125 51.042969 C 41.929688 43.808594 33.488281 41.851562 29.96875 41.304688 C 33.480469 34.863281 37.441406 29.433594 41.589844 24.878906 C 37.308594 24.121094 27.125 23.117188 24.726562 27.078125 C 24.726562 27.078125 8.023438 23.007812 7.023438 30.484375 C 7.023438 30.484375 -4.9375 60.789062 4.617188 65.929688 C 4.617188 65.929688 9.289062 71.636719 17.171875 67.441406 C 15.824219 49.609375 28.867188 43.367188 28.867188 43.367188 C 28.890625 43.320312 28.914062 43.277344 28.9375 43.234375 C 31.5 43.539062 40.351562 45.113281 49.308594 52.644531 C 49.441406 52.777344 49.707031 52.847656 49.910156 52.847656 C 50.175781 52.847656 50.507812 52.714844 50.710938 52.511719 C 51.042969 52.109375 51.042969 51.445312 50.578125 51.042969 Z M 74.890625 93.429688 C 74.890625 93.429688 88.453125 94.96875 95.332031 108.519531 C 95.332031 108.519531 111.964844 111.324219 115.304688 121.003906 C 115.304688 121.003906 118.113281 149.839844 79.503906 147.570312 C 79.503906 147.570312 43.429688 151.171875 43.226562 124.339844 C 43.226562 124.339844 40.6875 111.324219 54.25 107.25 C 54.183594 107.25 62.867188 92.164062 74.890625 93.429688 Z M 133.34375 81.683594 C 133.34375 81.683594 130.472656 62.792969 113.90625 65.460938 C 113.90625 65.460938 102.949219 65.796875 98.472656 88.089844 C 98.472656 88.089844 95 106.984375 119.046875 104.914062 C 119.046875 104.914062 146.234375 108.117188 133.34375 81.683594 Z M 29.464844 83.351562 C 29.464844 83.351562 32.804688 66.464844 47.371094 69.535156 C 47.371094 69.535156 57.054688 70.269531 60.128906 90.496094 C 60.128906 90.496094 62.398438 107.585938 41.222656 104.78125 C 41.222656 104.78125 16.910156 106.582031 29.464844 83.351562 Z M 129.402344 32.550781 C 129.402344 32.550781 133.476562 25.742188 148.84375 32.550781 C 148.84375 32.550781 158.394531 24.476562 169.28125 29.546875 C 169.28125 29.546875 186.316406 43.835938 182.578125 73.074219 C 182.578125 73.074219 182.910156 83.621094 173.359375 81.949219 C 173.359375 81.949219 147.4375 64.925781 136.550781 44.167969 C 136.550781 44.101562 125.996094 44.769531 129.402344 32.550781 "/>
</g>
<path style=" stroke:none;fill-rule:nonzero;fill:rgb(24.308777%,22.349548%,22.749329%);fill-opacity:1;" d="M 44.632812 82.152344 C 47.546875 82.152344 49.910156 85.828125 49.910156 90.363281 C 49.910156 94.898438 47.546875 98.574219 44.632812 98.574219 C 41.71875 98.574219 39.351562 94.898438 39.351562 90.363281 C 39.351562 85.828125 41.71875 82.152344 44.632812 82.152344 Z M 117.78125 79.882812 C 121.097656 79.882812 123.792969 84.066406 123.792969 89.226562 C 123.792969 94.386719 121.097656 98.574219 117.78125 98.574219 C 114.457031 98.574219 111.769531 94.386719 111.769531 89.226562 C 111.769531 84.066406 114.457031 79.882812 117.78125 79.882812 Z M 53.984375 123.203125 C 54.320312 122.738281 54.917969 122.605469 55.386719 122.871094 C 59.59375 125.542969 63.003906 126.277344 65.605469 124.941406 C 70.75 122.339844 71.484375 112.789062 71.484375 112.457031 C 71.085938 109.921875 70.949219 107.652344 70.949219 106.113281 C 68.679688 105.78125 63.335938 104.179688 62 96.636719 C 62 96.636719 69.882812 90.160156 83.644531 95.765625 C 83.644531 95.765625 82.574219 105.113281 73.023438 106.113281 C 73.023438 106.183594 73.023438 106.183594 73.023438 106.25 L 73.488281 111.992188 C 74.089844 115.527344 75.292969 119.53125 77.832031 122.402344 C 80.039062 124.875 82.90625 126.277344 86.515625 126.472656 C 86.582031 126.472656 92.59375 127.140625 95.734375 119.398438 C 95.933594 118.867188 96.535156 118.667969 97.070312 118.867188 C 97.605469 119.066406 97.871094 119.667969 97.605469 120.199219 C 94.597656 127.542969 89.253906 128.476562 87.117188 128.546875 C 86.582031 128.546875 86.246094 128.546875 86.246094 128.546875 C 82.105469 128.277344 78.765625 126.679688 76.226562 123.804688 C 74.558594 121.9375 73.488281 119.667969 72.6875 117.398438 C 71.820312 120.800781 70.082031 125.007812 66.476562 126.808594 C 65.40625 127.34375 64.269531 127.613281 63.066406 127.679688 C 60.464844 127.808594 57.523438 126.742188 54.183594 124.609375 C 53.785156 124.273438 53.652344 123.675781 53.984375 123.203125 "/>
</g>
<mask id="mask1">
  <g filter="url(#alpha)">
<rect x="0" y="0" width="375" height="374.999991" style="fill:rgb(0%,0%,0%);fill-opacity:0.4392;stroke:none;"/>
  </g>
</mask>
<clipPath id="clip6">
  <path d="M 59 48 L 279 48 L 279 293 L 59 293 Z M 59 48 "/>
</clipPath>
<clipPath id="clip7">
  <path d="M 194.445312 -22.414062 L 344.257812 135.265625 L 150.148438 319.6875 L 0.335938 162.007812 Z M 194.445312 -22.414062 "/>
</clipPath>
<clipPath id="clip8">
  <path d="M 344.46875 135.484375 L 194.65625 -22.195312 L 0.546875 162.226562 L 150.359375 319.90625 Z M 344.46875 135.484375 "/>
</clipPath>
<clipPath id="clip9">
  <path d="M 344.464844 135.484375 L 194.4375 -22.425781 L 0.171875 162.144531 L 150.199219 320.054688 Z M 344.464844 135.484375 "/>
</clipPath>
<clipPath id="clip10">
  <path d="M 344.464844 135.484375 L 194.667969 -22.183594 L 0.554688 162.242188 L 150.351562 319.910156 Z M 344.464844 135.484375 "/>
</clipPath>
<clipPath id="clip11">
  <path d="M 65 63 L 267 63 L 267 241 L 65 241 Z M 65 63 "/>
</clipPath>
<clipPath id="clip12">
  <path d="M 194.445312 -22.414062 L 344.257812 135.265625 L 150.148438 319.6875 L 0.335938 162.007812 Z M 194.445312 -22.414062 "/>
</clipPath>
<clipPath id="clip13">
  <path d="M 344.46875 135.484375 L 194.65625 -22.195312 L 0.546875 162.226562 L 150.359375 319.90625 Z M 344.46875 135.484375 "/>
</clipPath>
<clipPath id="clip14">
  <path d="M 156 131 L 227 131 L 227 189 L 156 189 Z M 156 131 "/>
</clipPath>
<clipPath id="clip15">
  <path d="M 194.445312 -22.414062 L 344.257812 135.265625 L 150.148438 319.6875 L 0.335938 162.007812 Z M 194.445312 -22.414062 "/>
</clipPath>
<clipPath id="clip16">
  <path d="M 344.46875 135.484375 L 194.65625 -22.195312 L 0.546875 162.226562 L 150.359375 319.90625 Z M 344.46875 135.484375 "/>
</clipPath>
<clipPath id="clip17">
  <path d="M 166 88 L 248 88 L 248 118 L 166 118 Z M 166 88 "/>
</clipPath>
<clipPath id="clip18">
  <path d="M 194.445312 -22.414062 L 344.257812 135.265625 L 150.148438 319.6875 L 0.335938 162.007812 Z M 194.445312 -22.414062 "/>
</clipPath>
<clipPath id="clip19">
  <path d="M 344.46875 135.484375 L 194.65625 -22.195312 L 0.546875 162.226562 L 150.359375 319.90625 Z M 344.46875 135.484375 "/>
</clipPath>
<clipPath id="clip20">
  <path d="M 89 104 L 301 104 L 301 196 L 89 196 Z M 89 104 "/>
</clipPath>
<clipPath id="clip21">
  <path d="M 194.445312 -22.414062 L 344.257812 135.265625 L 150.148438 319.6875 L 0.335938 162.007812 Z M 194.445312 -22.414062 "/>
</clipPath>
<clipPath id="clip22">
  <path d="M 344.46875 135.484375 L 194.65625 -22.195312 L 0.546875 162.226562 L 150.359375 319.90625 Z M 344.46875 135.484375 "/>
</clipPath>
<clipPath id="clip5">
  <rect x="0" y="0" width="329" height="321"/>
</clipPath>
<g id="surface8" clip-path="url(#clip5)">
<g clip-path="url(#clip6)" clip-rule="nonzero">
<g clip-path="url(#clip7)" clip-rule="nonzero">
<g clip-path="url(#clip8)" clip-rule="nonzero">
<g clip-path="url(#clip9)" clip-rule="nonzero">
<g clip-path="url(#clip10)" clip-rule="nonzero">
<path style=" stroke:none;fill-rule:nonzero;fill:rgb(24.308777%,22.349548%,22.749329%);fill-opacity:1;" d="M 121.371094 49 C 122.367188 48.921875 123.347656 49.160156 124.304688 49.417969 C 138.421875 53.148438 151.402344 60.898438 161.542969 71.375 C 164.582031 74.507812 168.925781 76.046875 173.226562 75.332031 C 182.035156 73.871094 191.351562 73.820312 200.8125 75.394531 C 207.179688 76.453125 213.246094 78.191406 218.925781 80.511719 C 223.335938 82.3125 228.355469 81.644531 232.132812 78.734375 C 242.511719 70.722656 254.703125 65.046875 267.542969 62.390625 C 270.332031 61.820312 273.53125 61.46875 275.761719 63.246094 C 278.402344 65.351562 278.371094 69.3125 277.964844 72.660156 C 276.109375 87.898438 271.433594 102.78125 264.292969 116.371094 C 262.445312 119.875 261.96875 123.941406 263.050781 127.753906 C 265.46875 136.300781 266.082031 145.347656 264.554688 154.484375 C 261.09375 175.183594 252.082031 193.734375 234.859375 203.753906 C 230.820312 206.105469 228.050781 210.128906 227.039062 214.6875 C 226.742188 216.023438 226.429688 217.347656 226.09375 218.675781 C 224.496094 224.953125 222.429688 231.109375 219.9375 237.097656 C 212.210938 255.691406 200.371094 272.644531 185.617188 286.394531 C 181.476562 290.253906 175.933594 292.257812 170.285156 292.019531 C 142.039062 290.839844 114.210938 279.40625 93.644531 259.984375 C 77.445312 244.683594 65.945312 224.617188 60.425781 203.039062 C 58.609375 195.929688 60.644531 188.382812 65.765625 183.121094 L 65.847656 183.039062 C 73.382812 175.308594 81.996094 168.621094 91.371094 163.277344 C 95.175781 161.109375 99.101562 159.160156 103.132812 157.453125 C 109.089844 154.929688 113.066406 149.207031 113.359375 142.742188 C 113.554688 138.46875 114.058594 134.066406 114.8125 129.546875 C 115.925781 122.875 118.101562 116.617188 121.167969 110.886719 C 123.570312 106.390625 123.570312 101 121.171875 96.511719 C 114.65625 84.308594 111.925781 70.277344 115.015625 56.875 C 115.828125 53.347656 117.757812 49.277344 121.371094 49 "/>
<path style=" stroke:none;fill-rule:nonzero;fill:rgb(24.308777%,22.349548%,22.749329%);fill-opacity:1;" d="M 185.617188 286.394531 C 200.371094 272.644531 212.210938 255.691406 219.9375 237.097656 C 195.144531 243.175781 168.371094 240.980469 144.945312 230.835938 C 143.023438 230.007812 140.898438 228.875 140.398438 226.839844 C 139.847656 224.558594 141.757812 222.269531 143.980469 221.539062 C 146.210938 220.800781 148.628906 221.199219 150.945312 221.558594 C 175.867188 225.449219 201.542969 224.441406 226.09375 218.675781 C 226.429688 217.347656 226.742188 216.023438 227.039062 214.6875 C 228.050781 210.128906 230.820312 206.105469 234.859375 203.753906 C 252.082031 193.734375 261.09375 175.183594 264.554688 154.484375 C 266.082031 145.347656 265.46875 136.300781 263.050781 127.753906 C 261.96875 123.941406 262.445312 119.875 264.292969 116.371094 C 271.433594 102.78125 276.109375 87.898438 277.964844 72.660156 C 278.371094 69.3125 278.402344 65.351562 275.761719 63.246094 C 273.53125 61.46875 270.332031 61.820312 267.542969 62.390625 C 254.703125 65.046875 242.511719 70.722656 232.132812 78.734375 C 228.355469 81.644531 223.335938 82.3125 218.925781 80.511719 C 213.246094 78.191406 207.179688 76.453125 200.8125 75.394531 C 191.351562 73.820312 182.035156 73.871094 173.226562 75.332031 C 168.925781 76.046875 164.582031 74.507812 161.542969 71.375 C 151.402344 60.898438 138.421875 53.148438 124.304688 49.417969 C 123.347656 49.160156 122.367188 48.921875 121.371094 49 C 117.757812 49.277344 115.828125 53.347656 115.015625 56.875 C 111.925781 70.277344 114.65625 84.308594 121.171875 96.511719 C 123.570312 101 123.570312 106.390625 121.167969 110.886719 C 118.101562 116.617188 115.925781 122.875 114.8125 129.546875 C 114.058594 134.066406 113.554688 138.46875 113.359375 142.742188 C 113.066406 149.207031 109.089844 154.929688 103.132812 157.453125 C 99.101562 159.160156 95.175781 161.109375 91.371094 163.277344 C 87.363281 170.742188 87.324219 180.652344 89.671875 189.109375 C 92.882812 200.648438 99.511719 211.011719 102.636719 222.570312 C 103.40625 225.425781 103.679688 229.082031 101.242188 230.75 C 98.996094 232.265625 95.960938 231.0625 93.640625 229.675781 C 80.828125 222.019531 71.230469 209.160156 67.539062 194.6875 C 66.558594 190.878906 66.007812 186.96875 65.847656 183.039062 L 65.765625 183.121094 C 60.644531 188.382812 58.609375 195.929688 60.425781 203.039062 C 65.945312 224.617188 77.445312 244.683594 93.644531 259.984375 C 114.210938 279.40625 142.039062 290.839844 170.285156 292.019531 C 175.933594 292.257812 181.476562 290.253906 185.617188 286.394531 Z M 255.414062 110.636719 C 251.128906 103.785156 245.582031 97.570312 239.019531 92.296875 C 243.8125 88.480469 249.179688 85.371094 254.875 83.113281 C 258.035156 81.855469 262.015625 80.988281 264.546875 83.253906 C 267.316406 85.722656 266.523438 90.207031 265.195312 93.667969 C 262.855469 99.789062 259.535156 105.539062 255.414062 110.636719 Z M 136.882812 91.710938 C 132.355469 87.21875 128.933594 81.625 127.023438 75.527344 C 125.757812 71.484375 125.628906 66.148438 129.296875 64.023438 C 132.371094 62.234375 136.28125 63.867188 139.234375 65.828125 C 145.144531 69.757812 150.121094 75.082031 153.667969 81.234375 C 147.53125 83.996094 141.886719 87.53125 136.882812 91.710938 "/>
</g>
</g>
</g>
</g>
</g>
<g clip-path="url(#clip11)" clip-rule="nonzero">
<g clip-path="url(#clip12)" clip-rule="nonzero">
<g clip-path="url(#clip13)" clip-rule="nonzero">
<path style=" stroke:none;fill-rule:nonzero;fill:rgb(24.308777%,22.349548%,22.749329%);fill-opacity:1;" d="M 226.09375 218.675781 C 224.496094 224.953125 222.429688 231.109375 219.9375 237.097656 C 195.144531 243.175781 168.371094 240.980469 144.945312 230.835938 C 143.023438 230.007812 140.898438 228.875 140.398438 226.839844 C 139.847656 224.558594 141.757812 222.269531 143.980469 221.539062 C 146.210938 220.800781 148.628906 221.199219 150.945312 221.558594 C 175.867188 225.449219 201.542969 224.441406 226.09375 218.675781 Z M 265.195312 93.667969 C 262.855469 99.789062 259.535156 105.539062 255.414062 110.636719 C 251.128906 103.785156 245.582031 97.570312 239.019531 92.296875 C 243.8125 88.480469 249.179688 85.371094 254.875 83.113281 C 258.035156 81.855469 262.015625 80.988281 264.546875 83.253906 C 267.316406 85.722656 266.523438 90.207031 265.195312 93.667969 Z M 89.671875 189.109375 C 92.882812 200.648438 99.511719 211.011719 102.636719 222.570312 C 103.40625 225.425781 103.679688 229.082031 101.242188 230.75 C 98.996094 232.265625 95.960938 231.0625 93.640625 229.675781 C 80.828125 222.019531 71.230469 209.160156 67.539062 194.6875 C 66.558594 190.878906 66.007812 186.96875 65.847656 183.039062 C 73.382812 175.308594 81.996094 168.621094 91.371094 163.277344 C 87.363281 170.742188 87.324219 180.652344 89.671875 189.109375 Z M 153.667969 81.234375 C 150.121094 75.082031 145.144531 69.757812 139.234375 65.828125 C 136.28125 63.867188 132.371094 62.234375 129.296875 64.023438 C 125.628906 66.148438 125.757812 71.484375 127.023438 75.527344 C 128.933594 81.625 132.355469 87.21875 136.882812 91.710938 C 141.886719 87.53125 147.53125 83.996094 153.667969 81.234375 "/>
</g>
</g>
</g>
<g clip-path="url(#clip14)" clip-rule="nonzero">
<g clip-path="url(#clip15)" clip-rule="nonzero">
<g clip-path="url(#clip16)" clip-rule="nonzero">
<path style=" stroke:none;fill-rule:nonzero;fill:rgb(24.308777%,22.349548%,22.749329%);fill-opacity:1;" d="M 158.40625 146.820312 C 152.757812 160.894531 163.027344 178.253906 181.34375 185.59375 C 199.660156 192.9375 219.085938 187.480469 224.730469 173.40625 C 230.378906 159.332031 220.109375 141.972656 201.792969 134.632812 C 183.476562 127.292969 164.050781 132.75 158.40625 146.820312 "/>
</g>
</g>
</g>
<g clip-path="url(#clip17)" clip-rule="nonzero">
<g clip-path="url(#clip18)" clip-rule="nonzero">
<g clip-path="url(#clip19)" clip-rule="nonzero">
<path style=" stroke:none;fill-rule:nonzero;fill:rgb(24.308777%,22.349548%,22.749329%);fill-opacity:1;" d="M 177.523438 88.84375 C 182.539062 90.320312 185.710938 94.546875 184.605469 98.273438 C 183.503906 102 179.25 98.667969 174.238281 97.1875 C 169.222656 95.707031 165.347656 96.636719 166.449219 92.910156 C 167.550781 89.183594 172.511719 87.359375 177.523438 88.84375 Z M 229.570312 110.535156 C 228.46875 114.261719 232.34375 113.332031 237.359375 114.8125 C 242.375 116.292969 246.625 119.625 247.730469 115.898438 C 248.832031 112.171875 245.660156 107.949219 240.644531 106.46875 C 235.632812 104.988281 230.675781 106.808594 229.570312 110.535156 "/>
</g>
</g>
</g>
<g clip-path="url(#clip20)" clip-rule="nonzero">
<g clip-path="url(#clip21)" clip-rule="nonzero">
<g clip-path="url(#clip22)" clip-rule="nonzero">
<path style=" stroke:none;fill-rule:nonzero;fill:rgb(24.308777%,22.349548%,22.749329%);fill-opacity:1;" d="M 171.148438 149.402344 C 172.058594 154.992188 176.375 159.964844 182.160156 160.695312 C 187.347656 161.359375 191.734375 158.660156 194.832031 154.835938 C 194.84375 154.589844 194.859375 154.34375 194.882812 154.097656 C 194.449219 153.785156 194.074219 153.375 193.796875 152.875 L 188.011719 142.367188 C 186.402344 139.4375 189.148438 136.027344 192.351562 136.976562 L 208.707031 141.804688 C 211.910156 142.753906 212.359375 147.105469 209.414062 148.6875 L 198.84375 154.367188 C 198.386719 154.609375 197.90625 154.75 197.421875 154.796875 C 197.167969 158.714844 198.484375 162.691406 201.738281 165.191406 C 206.179688 168.605469 212.554688 168.375 217.003906 165.144531 C 217.632812 164.683594 218.480469 165.816406 217.886719 166.320312 C 212.773438 170.636719 204.835938 170.859375 199.707031 166.40625 C 197.199219 164.226562 195.59375 161.226562 195.03125 158.058594 C 191.917969 162.136719 186.285156 164.367188 181.269531 163.53125 C 174.402344 162.382812 168.835938 156.15625 168.714844 149.171875 C 168.679688 147.265625 170.902344 147.902344 171.148438 149.402344 Z M 182.6875 110.472656 C 181.527344 108.980469 180.378906 107.5625 178.507812 106.988281 C 178.894531 109.636719 176.710938 113.894531 172.847656 117.566406 C 168.054688 122.117188 162.503906 124.042969 160.4375 121.871094 C 158.375 119.695312 160.582031 114.25 165.371094 109.699219 C 169.144531 106.113281 173.394531 104.15625 176.039062 104.554688 C 179.410156 104.507812 182.9375 106.683594 183.449219 110.191406 C 183.519531 110.683594 182.984375 110.851562 182.6875 110.472656 Z M 245.140625 131.160156 C 243.492188 129.144531 241.570312 128.1875 239.449219 127.777344 C 239.632812 130.441406 237.476562 134.515625 233.753906 138.050781 C 228.964844 142.597656 223.410156 144.523438 221.347656 142.351562 C 219.285156 140.179688 221.492188 134.730469 226.28125 130.179688 C 230.011719 126.636719 234.207031 124.683594 236.855469 125.019531 C 240.542969 124.957031 244.457031 127.597656 246.152344 130.632812 C 246.558594 131.359375 245.601562 131.71875 245.140625 131.160156 Z M 150.449219 145.089844 C 150.945312 145.105469 151.308594 146.007812 150.683594 146.042969 C 137.085938 146.742188 124.375 150.664062 112.386719 157.046875 C 111.765625 157.378906 110.921875 156.371094 111.546875 155.945312 C 122.851562 148.246094 136.832031 144.621094 150.449219 145.089844 Z M 131.484375 130.191406 C 139.714844 130.570312 149.09375 131.8125 156.476562 135.6875 C 156.707031 135.804688 156.808594 136.3125 156.425781 136.234375 C 152.3125 135.40625 148.328125 134.097656 144.183594 133.355469 C 140.09375 132.628906 135.949219 132.234375 131.800781 132.148438 C 123.132812 131.972656 114.496094 133.109375 106.085938 135.171875 C 105.394531 135.34375 104.726562 134.164062 105.496094 133.890625 C 113.835938 130.960938 122.660156 129.785156 131.484375 130.191406 Z M 89.820312 114.523438 C 113.515625 105.03125 142.230469 110.851562 161.300781 127.46875 C 161.882812 127.976562 161.375 128.925781 160.707031 128.371094 C 141.164062 112.179688 114.351562 108.015625 90.417969 115.824219 C 89.714844 116.054688 89.0625 114.824219 89.820312 114.523438 Z M 234.140625 174.070312 C 245.917969 177.699219 256.132812 184.875 263.710938 194.574219 C 264.089844 195.0625 263.484375 195.5625 263.097656 195.074219 C 255.574219 185.632812 245.472656 178.699219 234.058594 174.820312 C 233.683594 174.695312 233.671875 173.929688 234.140625 174.070312 Z M 287.019531 175.117188 C 287.597656 175.53125 287.230469 176.675781 286.503906 176.21875 C 272.003906 167.132812 254.523438 163.480469 237.683594 166.996094 C 236.878906 167.164062 236.140625 165.722656 237.035156 165.515625 C 254.191406 161.5 272.679688 164.777344 287.019531 175.117188 Z M 229.859375 159.355469 C 229.351562 159.699219 230 160.675781 230.523438 160.433594 C 241.691406 155.25 253.144531 152.085938 265.554688 152.425781 C 277.695312 152.75 289.34375 156.300781 299.832031 162.363281 C 300.800781 162.925781 300.960938 161.5 300.261719 161.007812 C 280.570312 147.246094 250.070312 145.628906 229.859375 159.355469 "/>
</g>
</g>
</g>
</g>
<clipPath id="clip23">
  <path d="M 97 48 L 316 48 L 316 293 L 97 293 Z M 97 48 "/>
</clipPath>
<clipPath id="clip24">
  <path d="M 231.789062 -22.414062 L 381.601562 135.265625 L 187.492188 319.6875 L 37.679688 162.007812 Z M 231.789062 -22.414062 "/>
</clipPath>
<clipPath id="clip25">
  <path d="M 381.808594 135.484375 L 232 -22.195312 L 37.890625 162.226562 L 187.699219 319.90625 Z M 381.808594 135.484375 "/>
</clipPath>
<clipPath id="clip26">
  <path d="M 381.808594 135.484375 L 231.777344 -22.425781 L 37.511719 162.144531 L 187.542969 320.054688 Z M 381.808594 135.484375 "/>
</clipPath>
<clipPath id="clip27">
  <path d="M 381.808594 135.484375 L 232.011719 -22.183594 L 37.898438 162.242188 L 187.695312 319.910156 Z M 381.808594 135.484375 "/>
</clipPath>
<clipPath id="clip28">
  <path d="M 103 63 L 304 63 L 304 241 L 103 241 Z M 103 63 "/>
</clipPath>
<clipPath id="clip29">
  <path d="M 231.789062 -22.414062 L 381.601562 135.265625 L 187.492188 319.6875 L 37.679688 162.007812 Z M 231.789062 -22.414062 "/>
</clipPath>
<clipPath id="clip30">
  <path d="M 381.808594 135.484375 L 232 -22.195312 L 37.890625 162.226562 L 187.699219 319.90625 Z M 381.808594 135.484375 "/>
</clipPath>
<clipPath id="clip31">
  <path d="M 194 131 L 264 131 L 264 189 L 194 189 Z M 194 131 "/>
</clipPath>
<clipPath id="clip32">
  <path d="M 231.789062 -22.414062 L 381.601562 135.265625 L 187.492188 319.6875 L 37.679688 162.007812 Z M 231.789062 -22.414062 "/>
</clipPath>
<clipPath id="clip33">
  <path d="M 381.808594 135.484375 L 232 -22.195312 L 37.890625 162.226562 L 187.699219 319.90625 Z M 381.808594 135.484375 "/>
</clipPath>
<clipPath id="clip34">
  <path d="M 203 88 L 286 88 L 286 118 L 203 118 Z M 203 88 "/>
</clipPath>
<clipPath id="clip35">
  <path d="M 231.789062 -22.414062 L 381.601562 135.265625 L 187.492188 319.6875 L 37.679688 162.007812 Z M 231.789062 -22.414062 "/>
</clipPath>
<clipPath id="clip36">
  <path d="M 381.808594 135.484375 L 232 -22.195312 L 37.890625 162.226562 L 187.699219 319.90625 Z M 381.808594 135.484375 "/>
</clipPath>
<clipPath id="clip37">
  <path d="M 126 104 L 339 104 L 339 196 L 126 196 Z M 126 104 "/>
</clipPath>
<clipPath id="clip38">
  <path d="M 231.789062 -22.414062 L 381.601562 135.265625 L 187.492188 319.6875 L 37.679688 162.007812 Z M 231.789062 -22.414062 "/>
</clipPath>
<clipPath id="clip39">
  <path d="M 381.808594 135.484375 L 232 -22.195312 L 37.890625 162.226562 L 187.699219 319.90625 Z M 381.808594 135.484375 "/>
</clipPath>
<clipPath id="clip40">
  <path d="M 75.125 273.503906 L 223 273.503906 L 223 319.132812 L 75.125 319.132812 Z M 75.125 273.503906 "/>
</clipPath>
<clipPath id="clip41">
  <path d="M 50.875 182.027344 L 229.617188 182.027344 L 229.617188 303.5625 L 50.875 303.5625 Z M 50.875 182.027344 "/>
</clipPath>
</defs>
<g id="surface1">
<path style=" stroke:none;fill-rule:nonzero;fill:rgb(96.469116%,73.728943%,65.879822%);fill-opacity:1;" d="M 375 187.5 C 375 190.570312 374.925781 193.636719 374.773438 196.699219 C 374.625 199.765625 374.398438 202.824219 374.097656 205.878906 C 373.796875 208.933594 373.421875 211.976562 372.96875 215.011719 C 372.519531 218.046875 371.996094 221.070312 371.398438 224.078125 C 370.796875 227.089844 370.125 230.082031 369.378906 233.058594 C 368.636719 236.035156 367.816406 238.992188 366.925781 241.929688 C 366.035156 244.863281 365.074219 247.777344 364.039062 250.667969 C 363.003906 253.554688 361.902344 256.417969 360.726562 259.253906 C 359.554688 262.089844 358.308594 264.890625 356.996094 267.667969 C 355.6875 270.441406 354.304688 273.179688 352.859375 275.886719 C 351.414062 278.59375 349.902344 281.261719 348.324219 283.894531 C 346.746094 286.527344 345.105469 289.117188 343.402344 291.667969 C 341.695312 294.222656 339.929688 296.730469 338.101562 299.195312 C 336.273438 301.660156 334.386719 304.078125 332.4375 306.449219 C 330.492188 308.820312 328.488281 311.144531 326.429688 313.417969 C 324.367188 315.691406 322.253906 317.914062 320.082031 320.082031 C 317.914062 322.253906 315.691406 324.367188 313.417969 326.429688 C 311.144531 328.488281 308.820312 330.492188 306.449219 332.4375 C 304.078125 334.386719 301.660156 336.273438 299.195312 338.101562 C 296.730469 339.929688 294.222656 341.695312 291.667969 343.402344 C 289.117188 345.105469 286.527344 346.746094 283.894531 348.324219 C 281.261719 349.902344 278.59375 351.414062 275.886719 352.859375 C 273.179688 354.308594 270.441406 355.6875 267.667969 356.996094 C 264.890625 358.308594 262.089844 359.554688 259.253906 360.726562 C 256.417969 361.902344 253.554688 363.003906 250.667969 364.039062 C 247.777344 365.074219 244.863281 366.035156 241.929688 366.925781 C 238.992188 367.816406 236.035156 368.636719 233.058594 369.378906 C 230.082031 370.125 227.089844 370.796875 224.078125 371.398438 C 221.070312 371.996094 218.046875 372.519531 215.011719 372.96875 C 211.976562 373.421875 208.933594 373.796875 205.878906 374.097656 C 202.824219 374.398438 199.765625 374.625 196.699219 374.773438 C 193.636719 374.925781 190.570312 375 187.5 375 C 184.429688 375 181.363281 374.925781 178.300781 374.773438 C 175.234375 374.625 172.175781 374.398438 169.121094 374.097656 C 166.066406 373.796875 163.023438 373.421875 159.988281 372.96875 C 156.953125 372.519531 153.929688 371.996094 150.921875 371.398438 C 147.910156 370.796875 144.917969 370.125 141.941406 369.378906 C 138.964844 368.636719 136.007812 367.816406 133.070312 366.925781 C 130.136719 366.035156 127.222656 365.074219 124.332031 364.039062 C 121.445312 363.003906 118.582031 361.902344 115.746094 360.726562 C 112.910156 359.554688 110.105469 358.308594 107.332031 356.996094 C 104.558594 355.6875 101.820312 354.308594 99.113281 352.859375 C 96.40625 351.414062 93.738281 349.902344 91.105469 348.324219 C 88.472656 346.746094 85.882812 345.105469 83.332031 343.402344 C 80.777344 341.695312 78.269531 339.929688 75.804688 338.101562 C 73.339844 336.273438 70.921875 334.386719 68.550781 332.4375 C 66.179688 330.492188 63.855469 328.488281 61.582031 326.429688 C 59.308594 324.367188 57.085938 322.253906 54.917969 320.082031 C 52.746094 317.914062 50.632812 315.691406 48.570312 313.417969 C 46.511719 311.144531 44.507812 308.820312 42.558594 306.449219 C 40.613281 304.078125 38.726562 301.660156 36.898438 299.195312 C 35.070312 296.730469 33.304688 294.222656 31.597656 291.667969 C 29.894531 289.117188 28.253906 286.527344 26.675781 283.894531 C 25.097656 281.261719 23.585938 278.59375 22.140625 275.886719 C 20.691406 273.179688 19.3125 270.441406 18.003906 267.667969 C 16.691406 264.890625 15.445312 262.089844 14.273438 259.253906 C 13.097656 256.417969 11.996094 253.554688 10.960938 250.667969 C 9.925781 247.777344 8.964844 244.863281 8.074219 241.929688 C 7.183594 238.992188 6.363281 236.035156 5.617188 233.058594 C 4.875 230.082031 4.203125 227.089844 3.601562 224.078125 C 3.003906 221.070312 2.480469 218.046875 2.03125 215.011719 C 1.578125 211.976562 1.203125 208.933594 0.902344 205.878906 C 0.601562 202.824219 0.375 199.765625 0.226562 196.699219 C 0.0742188 193.636719 0 190.570312 0 187.5 C 0 184.429688 0.0742188 181.363281 0.226562 178.300781 C 0.375 175.234375 0.601562 172.175781 0.902344 169.121094 C 1.203125 166.066406 1.578125 163.023438 2.03125 159.988281 C 2.480469 156.953125 3.003906 153.929688 3.601562 150.921875 C 4.203125 147.910156 4.875 144.917969 5.617188 141.941406 C 6.363281 138.964844 7.183594 136.007812 8.074219 133.070312 C 8.964844 130.136719 9.925781 127.222656 10.960938 124.332031 C 11.996094 121.445312 13.097656 118.582031 14.273438 115.746094 C 15.445312 112.910156 16.691406 110.105469 18.003906 107.332031 C 19.3125 104.558594 20.691406 101.820312 22.140625 99.113281 C 23.585938 96.40625 25.097656 93.738281 26.675781 91.105469 C 28.253906 88.472656 29.894531 85.882812 31.597656 83.332031 C 33.304688 80.777344 35.070312 78.269531 36.898438 75.804688 C 38.726562 73.339844 40.613281 70.921875 42.558594 68.550781 C 44.507812 66.179688 46.511719 63.855469 48.570312 61.582031 C 50.632812 59.308594 52.746094 57.085938 54.917969 54.917969 C 57.085938 52.746094 59.308594 50.632812 61.582031 48.570312 C 63.855469 46.511719 66.179688 44.507812 68.550781 42.558594 C 70.921875 40.613281 73.339844 38.726562 75.804688 36.898438 C 78.269531 35.070312 80.777344 33.304688 83.332031 31.597656 C 85.882812 29.894531 88.472656 28.253906 91.105469 26.675781 C 93.738281 25.097656 96.40625 23.585938 99.113281 22.140625 C 101.820312 20.691406 104.558594 19.3125 107.332031 18.003906 C 110.105469 16.691406 112.910156 15.445312 115.746094 14.273438 C 118.582031 13.097656 121.445312 11.996094 124.332031 10.960938 C 127.222656 9.925781 130.136719 8.964844 133.070312 8.074219 C 136.007812 7.183594 138.964844 6.363281 141.941406 5.617188 C 144.917969 4.875 147.910156 4.203125 150.921875 3.601562 C 153.929688 3.003906 156.953125 2.480469 159.988281 2.03125 C 163.023438 1.578125 166.066406 1.203125 169.121094 0.902344 C 172.175781 0.601562 175.234375 0.375 178.300781 0.226562 C 181.363281 0.0742188 184.429688 0 187.5 0 C 190.570312 0 193.636719 0.0742188 196.699219 0.226562 C 199.765625 0.375 202.824219 0.601562 205.878906 0.902344 C 208.933594 1.203125 211.976562 1.578125 215.011719 2.03125 C 218.046875 2.480469 221.070312 3.003906 224.078125 3.601562 C 227.089844 4.203125 230.082031 4.875 233.058594 5.617188 C 236.035156 6.363281 238.992188 7.183594 241.929688 8.074219 C 244.863281 8.964844 247.777344 9.925781 250.667969 10.960938 C 253.554688 11.996094 256.417969 13.097656 259.253906 14.273438 C 262.089844 15.445312 264.890625 16.691406 267.667969 18.003906 C 270.441406 19.3125 273.179688 20.691406 275.886719 22.140625 C 278.59375 23.585938 281.261719 25.097656 283.894531 26.675781 C 286.527344 28.253906 289.117188 29.894531 291.667969 31.597656 C 294.222656 33.304688 296.730469 35.070312 299.195312 36.898438 C 301.660156 38.726562 304.078125 40.613281 306.449219 42.558594 C 308.820312 44.507812 311.144531 46.511719 313.417969 48.570312 C 315.691406 50.632812 317.914062 52.746094 320.082031 54.917969 C 322.253906 57.085938 324.367188 59.308594 326.429688 61.582031 C 328.488281 63.855469 330.492188 66.179688 332.4375 68.550781 C 334.386719 70.921875 336.273438 73.339844 338.101562 75.804688 C 339.929688 78.269531 341.695312 80.777344 343.402344 83.332031 C 345.105469 85.882812 346.746094 88.472656 348.324219 91.105469 C 349.902344 93.738281 351.414062 96.40625 352.859375 99.113281 C 354.304688 101.820312 355.6875 104.558594 356.996094 107.332031 C 358.308594 110.105469 359.554688 112.910156 360.726562 115.746094 C 361.902344 118.582031 363.003906 121.445312 364.039062 124.332031 C 365.074219 127.222656 366.035156 130.136719 366.925781 133.070312 C 367.816406 136.007812 368.636719 138.964844 369.378906 141.941406 C 370.125 144.917969 370.796875 147.910156 371.398438 150.921875 C 371.996094 153.929688 372.519531 156.953125 372.96875 159.988281 C 373.421875 163.023438 373.796875 166.066406 374.097656 169.121094 C 374.398438 172.175781 374.625 175.234375 374.773438 178.300781 C 374.925781 181.363281 375 184.429688 375 187.5 Z M 375 187.5 "/>
<use xlink:href="#surface5" transform="matrix(1,0,0,1,46,161)" mask="url(#mask0)"/>
<use xlink:href="#surface8" transform="matrix(1,0,0,1,46,0)" mask="url(#mask1)"/>
<g clip-path="url(#clip23)" clip-rule="nonzero">
<g clip-path="url(#clip24)" clip-rule="nonzero">
<g clip-path="url(#clip25)" clip-rule="nonzero">
<g clip-path="url(#clip26)" clip-rule="nonzero">
<g clip-path="url(#clip27)" clip-rule="nonzero">
<path style=" stroke:none;fill-rule:nonzero;fill:rgb(99.21875%,74.508667%,51.368713%);fill-opacity:1;" d="M 158.710938 49 C 159.710938 48.921875 160.691406 49.160156 161.648438 49.417969 C 175.761719 53.148438 188.746094 60.898438 198.886719 71.375 C 201.925781 74.507812 206.265625 76.046875 210.570312 75.332031 C 219.378906 73.871094 228.695312 73.820312 238.15625 75.394531 C 244.523438 76.453125 250.589844 78.191406 256.265625 80.511719 C 260.679688 82.3125 265.699219 81.644531 269.476562 78.734375 C 279.851562 70.722656 292.046875 65.046875 304.886719 62.390625 C 307.671875 61.820312 310.875 61.46875 313.105469 63.246094 C 315.746094 65.351562 315.714844 69.3125 315.304688 72.660156 C 313.453125 87.898438 308.777344 102.78125 301.632812 116.371094 C 299.789062 119.875 299.3125 123.941406 300.390625 127.753906 C 302.8125 136.300781 303.421875 145.347656 301.898438 154.484375 C 298.4375 175.183594 289.425781 193.734375 272.203125 203.753906 C 268.164062 206.105469 265.394531 210.128906 264.382812 214.6875 C 264.085938 216.023438 263.769531 217.347656 263.433594 218.675781 C 261.839844 224.953125 259.773438 231.109375 257.28125 237.097656 C 249.550781 255.691406 237.714844 272.644531 222.960938 286.394531 C 218.820312 290.253906 213.277344 292.257812 207.625 292.019531 C 179.382812 290.839844 151.554688 279.40625 130.988281 259.984375 C 114.785156 244.683594 103.289062 224.617188 97.769531 203.039062 C 95.953125 195.929688 97.984375 188.382812 103.109375 183.121094 L 103.191406 183.039062 C 110.722656 175.308594 119.339844 168.621094 128.714844 163.277344 C 132.515625 161.109375 136.441406 159.160156 140.476562 157.453125 C 146.433594 154.929688 150.410156 149.207031 150.703125 142.742188 C 150.894531 138.46875 151.402344 134.066406 152.152344 129.546875 C 153.269531 122.875 155.445312 116.617188 158.511719 110.886719 C 160.914062 106.390625 160.910156 101 158.515625 96.511719 C 152 84.308594 149.265625 70.277344 152.355469 56.875 C 153.171875 53.347656 155.101562 49.277344 158.710938 49 "/>
<path style=" stroke:none;fill-rule:nonzero;fill:rgb(99.21875%,74.508667%,51.368713%);fill-opacity:1;" d="M 222.960938 286.394531 C 237.714844 272.644531 249.550781 255.691406 257.28125 237.097656 C 232.488281 243.175781 205.714844 240.980469 182.289062 230.835938 C 180.363281 230.007812 178.242188 228.875 177.742188 226.839844 C 177.191406 224.558594 179.097656 222.269531 181.324219 221.539062 C 183.550781 220.800781 185.972656 221.199219 188.289062 221.558594 C 213.210938 225.449219 238.882812 224.441406 263.433594 218.675781 C 263.769531 217.347656 264.085938 216.023438 264.382812 214.6875 C 265.394531 210.128906 268.164062 206.105469 272.203125 203.753906 C 289.425781 193.734375 298.4375 175.183594 301.898438 154.484375 C 303.421875 145.347656 302.8125 136.300781 300.390625 127.753906 C 299.3125 123.941406 299.789062 119.875 301.632812 116.371094 C 308.777344 102.78125 313.453125 87.898438 315.304688 72.660156 C 315.714844 69.3125 315.746094 65.351562 313.105469 63.246094 C 310.875 61.46875 307.671875 61.820312 304.886719 62.390625 C 292.046875 65.046875 279.851562 70.722656 269.476562 78.734375 C 265.699219 81.644531 260.679688 82.3125 256.265625 80.511719 C 250.589844 78.191406 244.523438 76.453125 238.15625 75.394531 C 228.695312 73.820312 219.378906 73.871094 210.570312 75.332031 C 206.265625 76.046875 201.925781 74.507812 198.886719 71.375 C 188.746094 60.898438 175.761719 53.148438 161.648438 49.417969 C 160.691406 49.160156 159.710938 48.921875 158.710938 49 C 155.101562 49.277344 153.171875 53.347656 152.355469 56.875 C 149.265625 70.277344 152 84.308594 158.515625 96.511719 C 160.910156 101 160.914062 106.390625 158.511719 110.886719 C 155.445312 116.617188 153.269531 122.875 152.152344 129.546875 C 151.402344 134.066406 150.894531 138.46875 150.703125 142.742188 C 150.410156 149.207031 146.433594 154.929688 140.476562 157.453125 C 136.441406 159.160156 132.515625 161.109375 128.714844 163.277344 C 124.703125 170.742188 124.664062 180.652344 127.015625 189.109375 C 130.226562 200.648438 136.851562 211.011719 139.980469 222.570312 C 140.75 225.425781 141.023438 229.082031 138.585938 230.75 C 136.339844 232.265625 133.300781 231.0625 130.980469 229.675781 C 118.167969 222.019531 108.570312 209.160156 104.882812 194.6875 C 103.902344 190.878906 103.347656 186.96875 103.191406 183.039062 L 103.109375 183.121094 C 97.984375 188.382812 95.953125 195.929688 97.769531 203.039062 C 103.289062 224.617188 114.785156 244.683594 130.988281 259.984375 C 151.554688 279.40625 179.382812 290.839844 207.625 292.019531 C 213.277344 292.257812 218.820312 290.253906 222.960938 286.394531 Z M 292.753906 110.636719 C 288.472656 103.785156 282.925781 97.570312 276.363281 92.296875 C 281.15625 88.480469 286.523438 85.371094 292.21875 83.113281 C 295.378906 81.855469 299.359375 80.988281 301.890625 83.253906 C 304.660156 85.722656 303.867188 90.207031 302.539062 93.667969 C 300.195312 99.789062 296.878906 105.539062 292.753906 110.636719 Z M 174.226562 91.710938 C 169.699219 87.21875 166.277344 81.625 164.367188 75.527344 C 163.101562 71.484375 162.972656 66.148438 166.640625 64.023438 C 169.714844 62.234375 173.621094 63.867188 176.578125 65.828125 C 182.488281 69.757812 187.464844 75.082031 191.007812 81.234375 C 184.875 83.996094 179.230469 87.53125 174.226562 91.710938 "/>
</g>
</g>
</g>
</g>
</g>
<g clip-path="url(#clip28)" clip-rule="nonzero">
<g clip-path="url(#clip29)" clip-rule="nonzero">
<g clip-path="url(#clip30)" clip-rule="nonzero">
<path style=" stroke:none;fill-rule:nonzero;fill:rgb(98.81897%,63.529968%,30.198669%);fill-opacity:1;" d="M 263.433594 218.675781 C 261.839844 224.953125 259.773438 231.109375 257.28125 237.097656 C 232.488281 243.175781 205.714844 240.980469 182.289062 230.835938 C 180.363281 230.007812 178.242188 228.875 177.742188 226.839844 C 177.191406 224.558594 179.097656 222.269531 181.324219 221.539062 C 183.550781 220.800781 185.972656 221.199219 188.289062 221.558594 C 213.210938 225.449219 238.882812 224.441406 263.433594 218.675781 Z M 302.539062 93.667969 C 300.195312 99.789062 296.878906 105.539062 292.753906 110.636719 C 288.472656 103.785156 282.925781 97.570312 276.363281 92.296875 C 281.15625 88.480469 286.523438 85.371094 292.21875 83.113281 C 295.378906 81.855469 299.359375 80.988281 301.890625 83.253906 C 304.660156 85.722656 303.867188 90.207031 302.539062 93.667969 Z M 127.015625 189.109375 C 130.226562 200.648438 136.851562 211.011719 139.980469 222.570312 C 140.75 225.425781 141.023438 229.082031 138.585938 230.75 C 136.339844 232.265625 133.300781 231.0625 130.980469 229.675781 C 118.167969 222.019531 108.570312 209.160156 104.882812 194.6875 C 103.902344 190.878906 103.347656 186.96875 103.191406 183.039062 C 110.722656 175.308594 119.339844 168.621094 128.714844 163.277344 C 124.703125 170.742188 124.664062 180.652344 127.015625 189.109375 Z M 191.007812 81.234375 C 187.464844 75.082031 182.488281 69.757812 176.578125 65.828125 C 173.621094 63.867188 169.714844 62.234375 166.640625 64.023438 C 162.972656 66.148438 163.101562 71.484375 164.367188 75.527344 C 166.277344 81.625 169.699219 87.21875 174.226562 91.710938 C 179.230469 87.53125 184.875 83.996094 191.007812 81.234375 "/>
</g>
</g>
</g>
<g clip-path="url(#clip31)" clip-rule="nonzero">
<g clip-path="url(#clip32)" clip-rule="nonzero">
<g clip-path="url(#clip33)" clip-rule="nonzero">
<path style=" stroke:none;fill-rule:nonzero;fill:rgb(94.509888%,85.879517%,77.648926%);fill-opacity:1;" d="M 195.746094 146.820312 C 190.101562 160.894531 200.371094 178.253906 218.6875 185.59375 C 237.003906 192.9375 256.429688 187.480469 262.074219 173.40625 C 267.722656 159.332031 257.453125 141.972656 239.136719 134.632812 C 220.820312 127.292969 201.394531 132.75 195.746094 146.820312 "/>
</g>
</g>
</g>
<g clip-path="url(#clip34)" clip-rule="nonzero">
<g clip-path="url(#clip35)" clip-rule="nonzero">
<g clip-path="url(#clip36)" clip-rule="nonzero">
<path style=" stroke:none;fill-rule:nonzero;fill:rgb(88.238525%,52.549744%,41.569519%);fill-opacity:1;" d="M 214.867188 88.84375 C 219.882812 90.320312 223.054688 94.546875 221.949219 98.273438 C 220.847656 102 216.59375 98.667969 211.582031 97.1875 C 206.566406 95.707031 202.691406 96.636719 203.792969 92.910156 C 204.894531 89.183594 209.851562 87.359375 214.867188 88.84375 Z M 266.914062 110.535156 C 265.8125 114.261719 269.6875 113.332031 274.703125 114.8125 C 279.714844 116.292969 283.96875 119.625 285.074219 115.898438 C 286.175781 112.171875 283.003906 107.949219 277.988281 106.46875 C 272.976562 104.988281 268.015625 106.808594 266.914062 110.535156 "/>
</g>
</g>
</g>
<g clip-path="url(#clip37)" clip-rule="nonzero">
<g clip-path="url(#clip38)" clip-rule="nonzero">
<g clip-path="url(#clip39)" clip-rule="nonzero">
<path style=" stroke:none;fill-rule:nonzero;fill:rgb(24.308777%,22.349548%,22.749329%);fill-opacity:1;" d="M 208.492188 149.402344 C 209.398438 154.992188 213.71875 159.964844 219.5 160.695312 C 224.691406 161.359375 229.074219 158.660156 232.175781 154.835938 C 232.1875 154.589844 232.203125 154.34375 232.226562 154.097656 C 231.792969 153.785156 231.414062 153.375 231.140625 152.875 L 225.355469 142.367188 C 223.746094 139.4375 226.488281 136.027344 229.695312 136.976562 L 246.050781 141.804688 C 249.253906 142.753906 249.699219 147.105469 246.753906 148.6875 L 236.183594 154.367188 C 235.730469 154.609375 235.246094 154.75 234.765625 154.796875 C 234.511719 158.714844 235.824219 162.691406 239.082031 165.191406 C 243.523438 168.605469 249.894531 168.375 254.34375 165.144531 C 254.976562 164.683594 255.824219 165.816406 255.230469 166.320312 C 250.117188 170.636719 242.179688 170.859375 237.050781 166.40625 C 234.539062 164.226562 232.933594 161.226562 232.375 158.058594 C 229.261719 162.136719 223.628906 164.367188 218.613281 163.53125 C 211.746094 162.382812 206.179688 156.15625 206.054688 149.171875 C 206.023438 147.265625 208.246094 147.902344 208.492188 149.402344 Z M 220.03125 110.472656 C 218.871094 108.980469 217.71875 107.5625 215.851562 106.988281 C 216.238281 109.636719 214.054688 113.894531 210.1875 117.566406 C 205.398438 122.117188 199.84375 124.042969 197.78125 121.871094 C 195.71875 119.695312 197.925781 114.25 202.714844 109.699219 C 206.488281 106.113281 210.738281 104.15625 213.378906 104.554688 C 216.75 104.507812 220.28125 106.683594 220.792969 110.191406 C 220.863281 110.683594 220.328125 110.851562 220.03125 110.472656 Z M 282.484375 131.160156 C 280.835938 129.144531 278.910156 128.1875 276.792969 127.777344 C 276.976562 130.441406 274.816406 134.515625 271.097656 138.050781 C 266.308594 142.597656 260.753906 144.523438 258.691406 142.351562 C 256.625 140.179688 258.832031 134.730469 263.621094 130.179688 C 267.351562 126.636719 271.550781 124.683594 274.195312 125.019531 C 277.886719 124.957031 281.796875 127.597656 283.496094 130.632812 C 283.902344 131.359375 282.941406 131.71875 282.484375 131.160156 Z M 187.792969 145.089844 C 188.289062 145.105469 188.652344 146.007812 188.023438 146.042969 C 174.429688 146.742188 161.71875 150.664062 149.730469 157.046875 C 149.105469 157.378906 148.265625 156.371094 148.890625 155.945312 C 160.195312 148.246094 174.171875 144.621094 187.792969 145.089844 Z M 168.828125 130.191406 C 177.058594 130.570312 186.4375 131.8125 193.820312 135.6875 C 194.050781 135.804688 194.152344 136.3125 193.769531 136.234375 C 189.65625 135.40625 185.671875 134.097656 181.527344 133.355469 C 177.4375 132.628906 173.292969 132.234375 169.144531 132.148438 C 160.476562 131.972656 151.839844 133.109375 143.425781 135.171875 C 142.738281 135.34375 142.070312 134.164062 142.839844 133.890625 C 151.175781 130.960938 160.003906 129.785156 168.828125 130.191406 Z M 127.164062 114.523438 C 150.859375 105.03125 179.574219 110.851562 198.644531 127.46875 C 199.226562 127.976562 198.71875 128.925781 198.050781 128.371094 C 178.507812 112.179688 151.695312 108.015625 127.757812 115.824219 C 127.058594 116.054688 126.40625 114.824219 127.164062 114.523438 Z M 271.484375 174.070312 C 283.261719 177.699219 293.472656 184.875 301.054688 194.574219 C 301.433594 195.0625 300.828125 195.5625 300.4375 195.074219 C 292.917969 185.632812 282.816406 178.699219 271.398438 174.820312 C 271.027344 174.695312 271.015625 173.929688 271.484375 174.070312 Z M 324.363281 175.117188 C 324.9375 175.53125 324.570312 176.675781 323.84375 176.21875 C 309.347656 167.132812 291.863281 163.480469 275.027344 166.996094 C 274.222656 167.164062 273.484375 165.722656 274.375 165.515625 C 291.535156 161.5 310.023438 164.777344 324.363281 175.117188 Z M 267.199219 159.355469 C 266.695312 159.699219 267.34375 160.675781 267.863281 160.433594 C 279.035156 155.25 290.488281 152.085938 302.898438 152.425781 C 315.039062 152.75 326.683594 156.300781 337.171875 162.363281 C 338.144531 162.925781 338.304688 161.5 337.605469 161.007812 C 317.914062 147.246094 287.414062 145.628906 267.199219 159.355469 "/>
</g>
</g>
</g>
<g clip-path="url(#clip40)" clip-rule="nonzero">
<path style=" stroke:none;fill-rule:nonzero;fill:rgb(0%,68.629456%,72.549438%);fill-opacity:1;" d="M 80.460938 292.011719 L 75.347656 307.695312 C 75.347656 307.695312 100.121094 321.417969 136.820312 318.804688 C 173.519531 316.191406 222.671875 292.011719 222.671875 292.011719 L 212.84375 273.71875 C 212.84375 273.71875 141.410156 315.210938 80.460938 292.011719 "/>
</g>
<path style=" stroke:none;fill-rule:nonzero;fill:rgb(95.689392%,94.898987%,76.469421%);fill-opacity:1;" d="M 172.539062 297.042969 C 134.984375 327.492188 96.972656 302.726562 96.972656 302.726562 C 46.183594 294.695312 66.695312 254.375 66.695312 254.375 C 62.632812 239.28125 67.941406 231.703125 67.941406 231.703125 C 67.332031 229.28125 66.984375 227.035156 66.824219 224.949219 C 65.5 207.492188 78.296875 201.382812 78.296875 201.382812 C 82.003906 194.171875 86.28125 188.214844 90.777344 183.285156 C 110.210938 162.003906 133.804688 160.023438 133.804688 160.023438 C 207.007812 154.664062 220.378906 251.695312 220.378906 251.695312 C 240.433594 285.738281 172.539062 297.042969 172.539062 297.042969 "/>
<g clip-path="url(#clip41)" clip-rule="nonzero">
<path style=" stroke:none;fill-rule:nonzero;fill:rgb(88.238525%,52.549744%,41.569519%);fill-opacity:1;" d="M 172.40625 209.417969 C 172.667969 209.417969 172.867188 209.355469 173.0625 209.160156 C 173.453125 208.765625 173.519531 208.179688 173.125 207.722656 C 161.003906 194.128906 145.078125 200.925781 144.882812 200.992188 C 144.359375 201.1875 144.160156 201.773438 144.359375 202.296875 C 144.554688 202.820312 145.144531 203.015625 145.667969 202.820312 C 146.257812 202.558594 160.476562 196.546875 171.617188 209.09375 C 171.816406 209.289062 172.144531 209.417969 172.40625 209.417969 Z M 99.59375 208.898438 C 91.113281 201.816406 82.832031 199.898438 79.375 199.363281 C 82.824219 193.058594 86.707031 187.742188 90.777344 183.285156 C 86.578125 182.542969 76.589844 181.5625 74.234375 185.4375 C 74.234375 185.4375 57.847656 181.453125 56.867188 188.773438 C 56.867188 188.773438 45.132812 218.4375 54.507812 223.46875 C 54.507812 223.46875 59.089844 229.054688 66.824219 224.949219 C 65.5 207.492188 78.296875 201.382812 78.296875 201.382812 C 78.320312 201.339844 78.34375 201.296875 78.367188 201.253906 C 80.878906 201.550781 89.566406 203.089844 98.351562 210.464844 C 98.480469 210.59375 98.742188 210.660156 98.941406 210.660156 C 99.203125 210.660156 99.527344 210.53125 99.726562 210.335938 C 100.054688 209.941406 100.054688 209.289062 99.59375 208.898438 Z M 123.449219 250.386719 C 123.449219 250.386719 136.753906 251.894531 143.503906 265.15625 C 143.503906 265.15625 159.824219 267.902344 163.097656 277.378906 C 163.097656 277.378906 165.855469 305.601562 127.972656 303.382812 C 127.972656 303.382812 92.582031 306.910156 92.386719 280.644531 C 92.386719 280.644531 89.894531 267.902344 103.199219 263.917969 C 103.132812 263.917969 111.652344 249.148438 123.449219 250.386719 Z M 180.792969 238.890625 C 180.792969 238.890625 177.976562 220.398438 161.722656 223.011719 C 161.722656 223.011719 150.976562 223.335938 146.585938 245.160156 C 146.585938 245.160156 143.175781 263.65625 166.769531 261.628906 C 166.769531 261.628906 193.441406 264.761719 180.792969 238.890625 Z M 78.886719 240.523438 C 78.886719 240.523438 82.160156 223.992188 96.449219 226.996094 C 96.449219 226.996094 105.953125 227.714844 108.96875 247.515625 C 108.96875 247.515625 111.195312 264.242188 90.421875 261.496094 C 90.421875 261.496094 66.566406 263.261719 78.886719 240.523438 Z M 176.929688 190.796875 C 176.929688 190.796875 180.925781 184.132812 196 190.796875 C 196 190.796875 205.371094 182.890625 216.054688 187.855469 C 216.054688 187.855469 232.765625 201.839844 229.097656 230.460938 C 229.097656 230.460938 229.425781 240.785156 220.050781 239.148438 C 220.050781 239.148438 194.625 222.488281 183.941406 202.167969 C 183.941406 202.101562 173.585938 202.753906 176.929688 190.796875 "/>
</g>
<path style=" stroke:none;fill-rule:nonzero;fill:rgb(24.308777%,22.349548%,22.749329%);fill-opacity:1;" d="M 93.765625 239.347656 C 96.625 239.347656 98.941406 242.945312 98.941406 247.382812 C 98.941406 251.824219 96.625 255.421875 93.765625 255.421875 C 90.902344 255.421875 88.585938 251.824219 88.585938 247.382812 C 88.585938 242.945312 90.902344 239.347656 93.765625 239.347656 Z M 165.527344 237.125 C 168.78125 237.125 171.425781 241.222656 171.425781 246.273438 C 171.425781 251.324219 168.78125 255.421875 165.527344 255.421875 C 162.265625 255.421875 159.628906 251.324219 159.628906 246.273438 C 159.628906 241.222656 162.265625 237.125 165.527344 237.125 Z M 102.9375 279.53125 C 103.265625 279.074219 103.855469 278.945312 104.3125 279.207031 C 108.441406 281.820312 111.785156 282.539062 114.339844 281.230469 C 119.386719 278.683594 120.109375 269.335938 120.109375 269.011719 C 119.714844 266.53125 119.585938 264.308594 119.585938 262.804688 C 117.355469 262.476562 112.113281 260.910156 110.804688 253.527344 C 110.804688 253.527344 118.535156 247.1875 132.035156 252.675781 C 132.035156 252.675781 130.988281 261.824219 121.617188 262.804688 C 121.617188 262.871094 121.617188 262.871094 121.617188 262.9375 L 122.074219 268.554688 C 122.664062 272.015625 123.84375 275.9375 126.335938 278.75 C 128.5 281.164062 131.3125 282.539062 134.855469 282.734375 C 134.917969 282.734375 140.816406 283.386719 143.898438 275.808594 C 144.09375 275.285156 144.683594 275.089844 145.210938 275.285156 C 145.730469 275.480469 145.996094 276.070312 145.730469 276.589844 C 142.78125 283.777344 137.539062 284.691406 135.445312 284.757812 C 134.917969 284.757812 134.589844 284.757812 134.589844 284.757812 C 130.527344 284.5 127.25 282.933594 124.761719 280.117188 C 123.121094 278.292969 122.074219 276.070312 121.289062 273.847656 C 120.4375 277.179688 118.730469 281.296875 115.195312 283.058594 C 114.144531 283.585938 113.03125 283.84375 111.851562 283.910156 C 109.296875 284.039062 106.410156 282.996094 103.132812 280.90625 C 102.742188 280.578125 102.609375 279.992188 102.9375 279.53125 "/>
</g>
</svg>
