
<svg xmlns="http://www.w3.org/2000/svg" version="1.1" xmlns:xlink="http://www.w3.org/1999/xlink" preserveAspectRatio="none" x="0px" y="0px" width="526px" height="460px" viewBox="0 0 526 460">
<defs>
<g id="Symbol_2_0_Layer0_0_FILL">
<path fill="#FED9B7" stroke="none" d="
M 511.9 138.65
Q 511.9 135.65 510.35 133.1 508.8 130.55 506.15 129.2
L 260.85 1.2
Q 258.55 0 255.95 0 253.35 0 251 1.2
L 5.7 129.2
Q 3.1 130.55 1.55 133.1 0 135.65 0 138.65
L 0 181.3
Q 0 184.1 1.35 186.55 2.7 189 5.1 190.4 7.5 191.85 10.3 191.95 13.1 192.05 15.55 190.75
L 42.65 176.65 42.65 405.3 31.95 405.3
Q 27.55 405.3 24.4 408.4 21.3 411.55 21.3 415.95 21.3 420.4 24.4 423.5 27.55 426.6 31.95 426.6
L 370.25 426.6 373.6 439.85
Q 374.45 443.4 377.35 445.7 380.25 447.95 383.9 447.95
L 490.55 447.95
Q 494.2 447.95 497.1 445.7 500 443.4 500.9 439.85
L 511.6 397.2
Q 512.2 394.8 511.7 392.4 511.15 390 509.65 388.05 508.15 386.1 505.95 385.05 503.75 383.95 501.25 383.95
L 469.25 383.95 469.25 176.65 496.3 190.75
Q 498.65 191.95 501.25 191.95 504.25 191.95 506.75 190.4 509.15 189 510.55 186.55 511.9 184.1 511.9 181.3
L 511.9 138.65
M 490.55 145.1
L 490.55 163.7 260.85 43.85
Q 258.55 42.65 255.95 42.65 253.35 42.65 251 43.85
L 21.3 163.7 21.3 145.1 255.95 22.7 490.55 145.1
M 373.25 383.95
Q 370.75 383.95 368.55 385.05 366.35 386.1 364.85 388.05 363.35 390 362.85 392.4 362.3 394.8 362.9 397.2
L 364.95 405.3 351.95 405.3 351.95 298.6
Q 351.95 279.1 344.4 261.3 337.1 244.1 323.8 230.8 310.5 217.5 293.25 210.2 275.45 202.65 255.95 202.65 236.45 202.65 218.6 210.2 201.4 217.5 188.1 230.8 174.8 244.1 167.5 261.3 159.95 279.1 159.95 298.6
L 159.95 405.3 63.95 405.3 63.95 383.95 117.3 383.95
Q 121.7 383.95 124.85 380.8 127.95 377.7 127.95 373.3 127.95 368.85 124.85 365.75 121.7 362.6 117.3 362.6
L 63.95 362.6 63.95 165.5 255.95 65.35 447.9 165.5 447.9 383.95 373.25 383.95
M 324.7 269.6
Q 330.6 283.45 330.6 298.6
L 330.6 405.3 181.3 405.3 181.3 298.6
Q 181.3 283.45 187.15 269.6 192.85 256.2 203.2 245.85 213.5 235.5 226.9 229.85 240.8 223.95 255.95 223.95 271.1 223.95 284.95 229.85 298.35 235.5 308.7 245.85 319.05 256.2 324.7 269.6
M 392.25 426.6
L 386.9 405.3 487.55 405.3 482.25 426.6 392.25 426.6
M 324 314.65
Q 324.65 312.45 324.85 309.75 325 307.8 325 304 325 300.85 320.8 293.75 317.35 288 313.1 282.55 307.4 275.35 301.95 271.05 294.75 265.4 288.6 265.4 286.6 265.4 284.3 266.8 282.3 268.05 279.35 270.8 275.1 268.95 268.1 267.25 260.7 265.4 256.45 265.4 252.2 265.4 244.8 267.25 237.8 268.95 233.55 270.8 230.6 268.05 228.6 266.8 226.3 265.4 224.3 265.4 218.2 265.4 210.95 271.05 205.5 275.35 199.8 282.55 195.55 287.95 192.15 293.75 187.9 300.85 187.9 303.95 187.9 307.75 188.05 309.7 188.25 312.45 188.9 314.65 190.3 319.3 195.2 325.85 198.15 329.75 200.6 337.95 202.15 343.1 202.45 344 203.5 347.15 204.7 349 206.45 351.75 209 352.8 211.6 353.9 214.65 353.1 220.75 351.6 222.5 342.9 225.35 346.85 226.15 350.45 226.55 352.45 226.55 354.95 226.7 357.95 229.15 361.75 231.65 365.6 235.7 368.9 240.1 372.45 245.2 374.5 250.85 376.8 256.45 376.8 262.05 376.8 267.7 374.55 272.8 372.45 277.2 368.9 281.25 365.6 283.75 361.75 286.2 358 286.35 354.95 286.35 352.45 286.75 350.45 287.5 346.85 290.4 342.9 291.35 347.7 293.75 350.4 296.45 353.45 300.7 353.45 304.6 353.45 307.1 350.55 309 348.3 310.6 343.4 312.4 337.45 313.45 334.4 315.35 329 317.7 325.85 322.6 319.3 324 314.65
M 244.75 276.1
Q 252.45 273.95 256.45 273.95 260.45 273.95 268.15 276.1 275.3 278.05 277.1 279.3 278.4 280.45 280.1 280.4 281.85 280.4 283.05 279.15 287.45 274.75 288.95 274 292.05 274.2 296.5 277.7 300.95 281.15 305.8 287.15 309.95 292.3 313.2 297.75 316 302.4 316.45 304.2 316.45 307.4 316.35 308.75 316.2 310.8 315.7 312.35 314.75 315.5 310.9 320.7 307.05 325.8 304.15 335.35 303.45 337.65 302.3 341.45 301.4 344.15 300.65 344.85 299.65 344.8 299 342.2 298.6 340.6 298.4 338.5 298 333.95 298.6 325.15 299.3 314.5 299.3 312.55 299.3 305.25 294.95 293.6 293.55 289.9 291.85 286.1 291.05 284.35 290.3 282.75 289.5 281.2 287.8 280.65 286.1 280.05 284.5 280.85 282.95 281.65 282.4 283.35 281.8 285 282.6 286.6 285.25 291.85 287.5 298.3 290.75 307.35 290.75 312.55 290.75 314.8 290.3 320.9 289.8 327.65 289.7 331.05 285.9 334.3 282.95 338.65 277.9 346 277.9 353.25 277.9 355.15 275.5 356.25 273.35 357.25 270.1 357.25 266.85 357.3 264.15 356.3 261.2 355.25 260.25 353.4 260.05 353.05 259.8 352.7 264.35 351.25 268.05 346.3 271.45 341.75 271.45 338.25 271.45 334.2 266.75 331.8 262.55 329.65 256.45 329.65 250.35 329.65 246.15 331.8 241.45 334.2 241.45 338.25 241.45 341.75 244.85 346.3 248.55 351.25 253.1 352.7 252.9 352.95 252.65 353.4 251.7 355.25 248.75 356.3 246.1 357.3 242.85 357.25 239.55 357.25 237.4 356.25 235.05 355.15 235.05 353.25 235.05 346 230 338.65 227.05 334.3 223.2 331.05 223.1 327.85 222.6 320.95 222.2 314.8 222.2 312.55 222.2 307.35 225.4 298.3 227.7 291.8 230.3 286.6 231.1 285 230.5 283.35 229.95 281.65 228.4 280.85 226.8 280.05 225.1 280.65 223.4 281.2 222.6 282.75 220.2 287.7 217.95 293.6 213.6 305.25 213.6 312.55 213.6 314.45 214.3 325.15 214.9 333.95 214.5 338.5 214.3 340.6 213.9 342.2 213.25 344.8 212.25 344.85 211.5 344.15 210.6 341.45 209.45 337.65 208.75 335.35 205.9 325.8 202.05 320.7 198.15 315.5 197.2 312.35 196.45 310 196.45 304.2 196.95 302.4 199.7 297.75 203 292.3 207.15 287.15 211.95 281.15 216.4 277.7 220.85 274.2 223.95 274 225.45 274.75 229.85 279.15 231.05 280.4 232.8 280.4 234.55 280.45 235.8 279.3 237.6 278.05 244.75 276.1
M 250.5 339.2
Q 252.85 338.25 256.45 338.25 260.05 338.25 262.4 339.2 261.4 341.15 259.85 342.75 257.95 344.7 256.45 344.7 254.95 344.7 253.05 342.75 251.5 341.15 250.5 339.2
M 246.3 365.65
Q 249.15 365.3 251.75 364.35 254.4 363.35 256.45 361.8 258.5 363.35 261.15 364.35 263.75 365.3 266.6 365.65 256.45 370.85 246.3 365.65
M 280.6 313.1
Q 282.15 311.55 282.15 309.35 282.15 307.1 280.6 305.55 279 303.95 276.8 303.95 274.6 303.95 273 305.55 271.45 307.1 271.45 309.35 271.45 311.55 273 313.1 274.6 314.7 276.8 314.7 279 314.7 280.6 313.1
M 232.3 305.55
Q 230.75 307.1 230.75 309.35 230.75 311.55 232.3 313.1 233.9 314.7 236.1 314.7 238.3 314.7 239.9 313.1 241.45 311.55 241.45 309.35 241.45 307.1 239.9 305.55 238.3 303.95 236.1 303.95 233.9 303.95 232.3 305.55
M 202.6 138.65
Q 202.6 143.05 205.75 146.2
L 208.85 149.3 205.75 152.45
Q 202.6 155.55 202.6 160 202.6 164.4 205.75 167.5 208.85 170.65 213.25 170.65 217.75 170.65 220.8 167.5
L 228.35 159.95 283.5 159.95 291.05 167.5
Q 294.2 170.65 298.6 170.65 303 170.65 306.15 167.5 309.25 164.4 309.25 160 309.25 155.55 306.15 152.45
L 303 149.3 306.15 146.2
Q 309.25 143.05 309.25 138.65 309.25 134.2 306.15 131.1 303 128 298.6 128 294.15 128 291.05 131.1
L 283.5 138.65 228.35 138.65 220.8 131.1
Q 217.7 128 213.3 128 208.85 128 205.75 131.1 202.6 134.2 202.6 138.65 Z"/>
</g>
</defs>

<g transform="matrix( 1, 0, 0, 1, 7.8,7.8) ">
<g transform="matrix( 1, 0, 0, 1, 0,0) ">
<use xlink:href="#Symbol_2_0_Layer0_0_FILL"/>
</g>
</g>
</svg>
