
<svg xmlns="http://www.w3.org/2000/svg" version="1.1" xmlns:xlink="http://www.w3.org/1999/xlink" preserveAspectRatio="none" x="0px" y="0px" width="420px" height="420px" viewBox="0 0 420 420">
<defs>
<g id="Layer0_0_FILL">
<path fill="#FED9B7" stroke="none" d="
M 353.5 178.65
Q 353.5 142.95 339.65 110.35 326.35 78.85 302 54.55 277.65 30.15 246.15 16.85 213.5 3 177.85 3 142.2 3 109.55 16.85 78.05 30.15 53.75 54.55 29.4 78.85 16.05 110.35 2.25 142.95 2.25 178.65 2.25 214.3 16.05 246.95 29.4 278.45 53.75 302.8 78.05 327.15 109.55 340.45 142.2 354.3 177.85 354.3 213.55 354.3 246.15 340.45 270.6 330.15 290.75 313.2
L 391.8 414.3
Q 394 416.5 396.9 417.7 399.65 418.8 402.65 418.8 405.7 418.8 408.45 417.7 411.35 416.5 413.55 414.3 418 409.8 418 403.45 418 397.05 413.55 392.6
L 312.4 291.5
Q 329.35 271.4 339.65 246.95 353.5 214.35 353.5 178.65
M 177.85 33.75
Q 207.3 33.75 234.2 45.15 260.2 56.15 280.3 76.25 300.35 96.3 311.35 122.3 322.8 149.2 322.8 178.65 322.8 208.1 311.35 235 300.8 260 281.85 279.55 281 280.2 280.2 281 279.4 281.75 278.8 282.6 259.2 301.55 234.2 312.15 207.3 323.55 177.85 323.55 148.45 323.55 121.5 312.15 95.5 301.15 75.45 281.1 55.35 261 44.35 235 32.95 208.1 32.95 178.65 32.95 149.2 44.35 122.3 55.35 96.3 75.45 76.25 95.5 56.15 121.5 45.15 148.45 33.75 177.85 33.75
M 219.1 106.1
Q 216.1 107.9 211.75 112 205.6 109.25 195.3 106.75 184.4 104.05 178.2 104.05 171.95 104.05 161.05 106.75 150.8 109.25 144.6 112 140.25 107.9 137.25 106.1 133.9 104.05 131 104.05 122 104.05 111.4 112.35 103.4 118.65 95.05 129.25 88.75 137.15 83.75 145.65 77.55 156.1 77.55 160.7 77.55 166.25 77.75 169.1 78.1 173.1 79.05 176.35 81.05 183.2 88.25 192.8 92.55 198.55 96.2 210.6 98.45 218.15 98.9 219.45 100.35 223.75 101.95 226.4 102.05 226.6 102.2 226.75 104.75 230.8 108.55 232.4 112.3 233.95 116.8 232.85 125.8 230.6 128.35 217.85 132.55 223.65 133.65 228.95 134.3 231.8 134.3 235.5 134.5 239.95 138.1 245.5 141.75 251.15 147.75 256 154.15 261.25 161.65 264.25 169.95 267.6 178.2 267.6 186.45 267.6 194.75 264.3 202.2 261.25 208.6 256 214.6 251.15 218.25 245.5 221.85 240 222.05 235.5 222.1 231.85 222.7 228.95 223.8 223.65 228 217.85 229.4 224.9 232.9 228.85 236.9 233.3 243.15 233.3 248.9 233.3 252.5 229.05 255.3 225.8 257.7 218.6 258.75 215.2 259.6 212.45 260.95 208.1 261.85 205.35 264.65 197.45 268.15 192.8 275.3 183.2 277.35 176.35 278.3 173.1 278.6 169.15 278.8 166.3 278.8 160.7 278.85 156.1 272.65 145.65 267.6 137.2 261.35 129.25 252.95 118.65 244.95 112.35 234.35 104.05 225.35 104.05 222.45 104.05 219.1 106.1
M 225.9 116.7
Q 230.45 117 237 122.1 241.1 125.3 245.45 130 248 132.75 250.6 135.95 255.5 142.05 259.6 148.45 260.55 150 261.5 151.6 265.55 158.4 266.25 161.05 266.25 165.75 266.1 167.7 265.9 170.7 265.2 173 264 176.95 259.6 183.15 258.85 184.15 258.1 185.2
L 258.1 185.25
Q 252.45 192.75 248.2 206.75 247.15 210.15 245.5 215.7 244.2 219.7 243.05 220.7 241.6 220.6 240.65 216.8 240.05 214.45 239.8 211.4 239.15 204.7 240.05 191.75 241.1 176.1 241.1 173.25 241.1 162.6 234.65 145.45 232.65 140 230.15 134.45 229.1 132.1 228.05 130 227.95 129.8 227.85 129.55 226.7 127.25 224.2 126.4 221.75 125.6 219.4 126.75 217.25 127.8 216.4 130 216.3 130.2 216.25 130.4 215.45 132.85 216.6 135.2 220.45 142.9 223.8 152.35 228.5 165.6 228.5 173.25 228.5 176.6 227.85 185.5 227.15 195.5 227 200.4 221.4 205.25 217.05 211.6 209.65 222.35 209.65 233 209.65 235.8 206.15 237.4 203 238.9 198.2 238.9 193.45 238.95 189.5 237.5 185.15 235.95 183.75 233.25 183.5 232.7 183.1 232.25 189.75 230.1 195.2 222.85 200.2 216.15 200.2 211 200.2 205.05 193.35 201.5 187.15 198.35 178.2 198.35 169.25 198.35 163.05 201.5 156.2 205.05 156.2 211 156.2 216.2 161.15 222.85 166.6 230.1 173.3 232.25 173 232.55 172.65 233.25 171.2 235.95 166.9 237.5 162.95 238.95 158.2 238.9 153.4 238.9 150.2 237.4 146.75 235.8 146.75 233 146.75 222.35 139.35 211.6 135 205.25 129.35 200.4 129.25 195.75 128.5 185.6 127.85 176.6 127.85 173.25 127.85 165.65 132.6 152.35 135.95 142.85 139.8 135.2 140.95 132.85 140.1 130.4 140.05 130.2 140 130 139.1 127.8 136.95 126.75 134.65 125.6 132.15 126.4 129.7 127.25 128.5 129.55 128.4 129.8 128.3 130 124.85 137.05 121.7 145.45 115.3 162.6 115.3 173.25 115.3 176.1 116.35 191.75 117.2 204.7 116.6 211.4 116.3 214.45 115.7 216.8 114.8 220.6 113.35 220.7 112.15 219.7 110.85 215.7 109.2 210.15 108.2 206.75 105.4 197.5 101.95 191.05 100.2 187.75 98.3 185.2 92.55 177.6 91.15 173 90.15 169.55 90.1 161.05 90.8 158.4 94.85 151.6 98.15 146.15 101.95 140.95 103.8 138.45 105.8 135.95 108.4 132.75 110.95 130 115.25 125.3 119.4 122.1 125.9 117 130.45 116.7 132.7 117.8 139.15 124.25 140.9 126.05 143.45 126.1 146 126.15 147.85 124.45 150.5 122.65 161.05 119.75 172.35 116.65 178.2 116.65 184.05 116.65 195.35 119.75 205.85 122.65 208.55 124.45 210.4 126.15 212.9 126.1 215.45 126.05 217.25 124.25 223.7 117.8 225.9 116.7
M 186.95 212.4
Q 185.45 215.25 183.2 217.6 180.4 220.45 178.2 220.45 175.95 220.45 173.2 217.6 170.9 215.25 169.45 212.4 172.95 211 178.2 211 183.45 211 186.95 212.4
M 193.1 251.25
Q 178.2 258.85 163.25 251.25 167.5 250.7 171.25 249.3 175.2 247.85 178.15 245.6 181.15 247.85 185.1 249.3 188.85 250.7 193.1 251.25
M 156.2 168.55
Q 156.2 165.3 153.9 163 151.55 160.7 148.3 160.7 145.05 160.7 142.75 163 140.45 165.3 140.45 168.55 140.45 171.8 142.75 174.1 145.05 176.4 148.3 176.4 151.55 176.4 153.9 174.1 156.2 171.8 156.2 168.55
M 213.65 163
Q 211.3 160.7 208.05 160.7 204.8 160.7 202.5 163 200.2 165.3 200.2 168.55 200.2 171.8 202.5 174.1 204.8 176.4 208.05 176.4 211.3 176.4 213.65 174.1 215.95 171.8 215.95 168.55 215.95 165.3 213.65 163 Z"/>
</g>
</defs>

<g transform="matrix( 1, 0, 0, 1, 0,0) ">
<use xlink:href="#Layer0_0_FILL"/>
</g>
</svg>
