<?xml version="1.0"?>
<svg xmlns="http://www.w3.org/2000/svg" xmlns:xlink="http://www.w3.org/1999/xlink" xmlns:svgjs="http://svgjs.com/svgjs" version="1.1" width="512" height="512" x="0" y="0" viewBox="0 0 512 512" style="enable-background:new 0 0 512 512" xml:space="preserve" class=""><g><g xmlns="http://www.w3.org/2000/svg"><path d="m136.908 175.673 12.849 8.294c1.246.804 2.659 1.198 4.065 1.198 1.824 0 3.637-.664 5.057-1.959l30.45-27.779c3.06-2.792 3.278-7.536.486-10.596-2.792-3.061-7.535-3.277-10.595-.486l-26.182 23.886-7.995-5.161c-3.48-2.245-8.122-1.246-10.369 2.234s-1.246 8.122 2.234 10.369z" fill="#fed9b7" data-original="#000000" style="" class=""/><path d="m216.159 171.275h106.505c4.143 0 7.5-3.357 7.5-7.5s-3.357-7.5-7.5-7.5h-106.505c-4.142 0-7.5 3.357-7.5 7.5s3.358 7.5 7.5 7.5z" fill="#fed9b7" data-original="#000000" style="" class=""/><path d="m216.159 238.166h106.505c4.143 0 7.5-3.357 7.5-7.5s-3.357-7.5-7.5-7.5h-106.505c-4.142 0-7.5 3.357-7.5 7.5s3.358 7.5 7.5 7.5z" fill="#fed9b7" data-original="#000000" style="" class=""/><path d="m216.159 305.058h86.992c4.143 0 7.5-3.357 7.5-7.5s-3.357-7.5-7.5-7.5h-86.992c-4.142 0-7.5 3.357-7.5 7.5s3.358 7.5 7.5 7.5z" fill="#fed9b7" data-original="#000000" style="" class=""/><path d="m216.159 371.977h32.728c4.142 0 7.5-3.357 7.5-7.5s-3.358-7.5-7.5-7.5h-32.728c-4.142 0-7.5 3.357-7.5 7.5s3.358 7.5 7.5 7.5z" fill="#fed9b7" data-original="#000000" style="" class=""/><path d="m179.22 206.062-26.189 23.893-7.998-5.146c-3.484-2.24-8.125-1.234-10.366 2.25-2.241 3.483-1.234 8.124 2.25 10.365l12.849 8.267c1.244.8 2.653 1.192 4.056 1.192 1.824 0 3.637-.664 5.057-1.959l30.45-27.78c3.06-2.792 3.278-7.536.486-10.596-2.791-3.061-7.535-3.277-10.595-.486z" fill="#fed9b7" data-original="#000000" style="" class=""/><path d="m136.908 299.136 12.849 8.294c1.246.804 2.659 1.198 4.065 1.198 1.824 0 3.637-.664 5.057-1.959l30.45-27.779c3.06-2.792 3.278-7.536.486-10.596-2.792-3.061-7.535-3.276-10.595-.486l-26.182 23.886-7.995-5.161c-3.48-2.245-8.122-1.246-10.369 2.234s-1.246 8.122 2.234 10.369z" fill="#fed9b7" data-original="#000000" style="" class=""/><path d="m136.908 360.852 12.849 8.295c1.246.805 2.659 1.199 4.066 1.199 1.824 0 3.637-.664 5.057-1.959l30.45-27.78c3.06-2.792 3.278-7.536.486-10.596-2.791-3.061-7.536-3.277-10.595-.486l-26.182 23.887-7.995-5.161c-3.48-2.249-8.123-1.249-10.369 2.233-2.247 3.479-1.247 8.121 2.233 10.368z" fill="#fed9b7" data-original="#000000" style="" class=""/><path d="m410.106 386.949h-16.652v-16.652c0-5.842-4.752-10.594-10.593-10.594h-30.815c-5.841 0-10.593 4.752-10.593 10.594v16.652h-16.652c-5.856 0-10.621 4.765-10.621 10.621v30.788c0 5.856 4.765 10.621 10.621 10.621h16.652v16.652c0 5.842 4.752 10.594 10.593 10.594h30.815c5.841 0 10.593-4.752 10.593-10.594v-16.652h16.652c5.856 0 10.621-4.765 10.621-10.621v-30.788c.001-5.856-4.764-10.621-10.621-10.621zm-4.378 37.03h-15.359c-6.569 0-11.914 5.332-11.914 11.887v15.359h-22.001v-15.359c0-6.555-5.345-11.887-11.914-11.887h-15.36v-22.03h15.359c6.569 0 11.914-5.332 11.914-11.887v-15.359h22.001v15.359c0 6.555 5.345 11.887 11.914 11.887h15.359v22.03z" fill="#fed9b7" data-original="#000000" style="" class=""/><path d="m425.366 332.669v-109.96c0-4.143-3.357-7.5-7.5-7.5s-7.5 3.357-7.5 7.5v101.004c-7.722-3.727-16.001-6.474-24.672-8.094v-223.43c0-6.803-5.547-12.337-12.364-12.337h-44.516v-24.672h74.263c4.02 0 7.289 3.258 7.289 7.262v125.908c0 4.143 3.357 7.5 7.5 7.5s7.5-3.357 7.5-7.5v-125.909c0-12.275-9.999-22.262-22.289-22.262h-75.055c-1.801-4.929-6.515-8.464-12.05-8.464h-26.404c-2.772-4.949-6.216-9.494-10.271-13.548-11.714-11.715-27.297-18.167-43.878-18.167-16.594 0-32.169 6.454-43.851 18.167-4.073 4.073-7.521 8.609-10.294 13.549h-26.381c-5.547 0-10.271 3.534-12.076 8.464h-75.057c-12.275 0-22.261 9.986-22.261 22.262v397.634c0 12.274 9.986 22.261 22.261 22.261h229.084c17.981 18.295 42.991 29.663 70.61 29.663 54.614 0 99.047-44.434 99.047-99.05 0-33-16.235-62.277-41.135-80.281zm-268.343-285.953h27.758l.251.006c3.585.088 6.42-1.646 7.92-4.956l.076-.166c2.269-4.71 5.347-9.025 9.154-12.833 8.854-8.877 20.657-13.767 33.237-13.767 12.574 0 24.391 4.892 33.271 13.774 3.765 3.764 6.833 8.079 9.119 12.825.016.033.032.066.049.1l.105.217c1.978 4.116 5.361 4.896 7.858 4.805l27.992-.005v44.581h-156.79zm-89.263 420.62c-4.004 0-7.261-3.257-7.261-7.261v-397.634c0-4.004 3.257-7.262 7.261-7.262h74.263v24.673h-44.516c-6.802 0-12.336 5.534-12.336 12.337v186.923c0 4.143 3.358 7.5 7.5 7.5s7.5-3.357 7.5-7.5v-184.259h41.932c.701 6.426 6.167 11.444 12.79 11.444h161.08c6.608 0 12.063-5.018 12.762-11.444h41.96v219.135c-1.076-.035-2.156-.059-3.24-.059-54.615 0-99.048 44.421-99.048 99.021 0 4.999.376 9.911 1.094 14.713h-169.33v-114.191c0-4.143-3.358-7.5-7.5-7.5s-7.5 3.357-7.5 7.5v116.855c0 6.802 5.534 12.336 12.336 12.336h175.454c2.779 8.818 6.763 17.105 11.754 24.673zm299.694 29.664c-46.344 0-84.048-37.704-84.048-84.05 0-46.33 37.704-84.021 84.048-84.021s84.047 37.691 84.047 84.021c0 46.346-37.703 84.05-84.047 84.05z" fill="#fed9b7" data-original="#000000" style="" class=""/></g></g></svg>
