
<svg xmlns="http://www.w3.org/2000/svg" version="1.1" xmlns:xlink="http://www.w3.org/1999/xlink" preserveAspectRatio="none" x="0px" y="0px" width="400px" height="400px" viewBox="0 0 400 400">
<defs>
<g id="Layer0_0_FILL">
<path fill="#00AFB9" stroke="none" d="
M 310.2 51.25
Q 308.3 49.35 306.35 47.5 261.55 5.35 199.35 5.35 137.65 5.35 93.2 46.75 92.8 47.1 92.4 47.5 90.4 49.35 88.5 51.25 42.55 97.2 42.55 162.1 42.55 227.05 88.5 272.95 112.9 297.35 142.65 308.8
L 189.2 392.4
Q 189.5 392.75 189.85 393.1 193.65 396.9 198.95 396.9 204.25 396.9 208 393.1 209.45 391.65 210.4 389.95 210.55 389.65 210.7 389.3
L 251 310.65
Q 264.75 305.95 277.35 298.55 294.85 288.3 310.2 272.95 356.1 227.05 356.1 162.1 356.1 97.2 310.2 51.25
M 272.3 46.75
Q 272.85 47.1 273.35 47.5 275.35 48.95 277.35 50.5 284 55.7 290.25 61.95 327.9 99.65 327.9 152.9 327.9 206.15 290.25 243.8 284 250.05 277.35 255.25 261.15 267.9 242.4 274.45
L 211.2 340.85
Q 210.75 342.2 209.95 343.45 209.15 344.7 208 345.85 204.25 349.65 198.95 349.65 193.65 349.65 189.85 345.85 188.8 344.8 188.05 343.6 187.35 342.55 186.9 341.35
L 152.6 273.1
Q 128.35 263.7 108.45 243.8 70.75 206.15 70.75 152.9 70.75 99.65 108.45 61.95 116.55 53.85 125.35 47.5 125.85 47.1 126.4 46.75 158.25 24.3 199.35 24.3 240.45 24.3 272.3 46.75 Z"/>

<path fill="#FFFFFF" stroke="none" d="
M 273.35 47.5
Q 272.85 47.1 272.3 46.75 240.45 24.3 199.35 24.3 158.25 24.3 126.4 46.75 125.85 47.1 125.35 47.5 116.55 53.85 108.45 61.95 70.75 99.65 70.75 152.9 70.75 206.15 108.45 243.8 128.35 263.7 152.6 273.1
L 186.9 341.35
Q 187.35 342.55 188.05 343.6 188.8 344.8 189.85 345.85 193.65 349.65 198.95 349.65 204.25 349.65 208 345.85 209.15 344.7 209.95 343.45 210.75 342.2 211.2 340.85
L 242.4 274.45
Q 261.15 267.9 277.35 255.25 284 250.05 290.25 243.8 327.9 206.15 327.9 152.9 327.9 99.65 290.25 61.95 284 55.7 277.35 50.5 275.35 48.95 273.35 47.5
M 182.6 197.65
L 263.45 122.55 182.6 197.65 148.6 162.35 182.6 197.65 Z"/>
</g>

<path id="Layer0_0_1_STROKES" stroke="#00AFB9" stroke-width="36" stroke-linejoin="round" stroke-linecap="round" fill="none" d="
M 148.6 162.35
L 182.6 197.65 263.45 122.55"/>
</defs>

<g transform="matrix( 1, 0, 0, 1, 0,0) ">
<use xlink:href="#Layer0_0_FILL"/>

<use xlink:href="#Layer0_0_1_STROKES"/>
</g>
</svg>
