
<svg xmlns="http://www.w3.org/2000/svg" version="1.1" xmlns:xlink="http://www.w3.org/1999/xlink" preserveAspectRatio="none" x="0px" y="0px" width="400px" height="400px" viewBox="0 0 400 400">
<defs>
<g id="Layer0_0_FILL">
<path fill="#F07167" stroke="none" d="
M 310.9 50.65
Q 264.95 4.75 200.05 4.75 135.1 4.75 89.2 50.65 43.25 96.6 43.25 161.5 43.25 226.45 89.2 272.35 113.6 296.75 143.35 308.2
L 189.9 391.8
Q 190.2 392.15 190.55 392.5 194.35 396.3 199.65 396.3 204.95 396.3 208.7 392.5 210.45 390.75 211.4 388.7
L 251.7 310.05
Q 284.45 298.8 310.9 272.35 356.8 226.45 356.8 161.5 356.8 96.6 310.9 50.65
M 200.05 23.7
Q 253.3 23.7 290.95 61.35 328.6 99.05 328.6 152.3 328.6 205.55 290.95 243.2 269.55 264.6 243.1 273.85
L 211.9 340.25
Q 211.45 341.6 210.65 342.85 209.85 344.1 208.7 345.25 204.95 349.05 199.65 349.05 194.35 349.05 190.55 345.25 189.5 344.2 188.75 343 188.05 341.95 187.6 340.75
L 153.3 272.5
Q 129.05 263.1 109.15 243.2 71.45 205.55 71.45 152.3 71.45 99.05 109.15 61.35 146.8 23.7 200.05 23.7
M 209.65 240.4
Q 214.7 235.4 214.7 228.3 214.7 221.2 209.65 216.15 204.65 211.15 197.55 211.15 190.45 211.15 185.4 216.15 180.4 221.2 180.4 228.3 180.4 235.4 185.4 240.4 190.45 245.45 197.55 245.45 204.65 245.45 209.65 240.4 Z"/>

<path fill="#FFFFFF" stroke="none" d="
M 290.95 61.35
Q 253.3 23.7 200.05 23.7 146.8 23.7 109.15 61.35 71.45 99.05 71.45 152.3 71.45 205.55 109.15 243.2 129.05 263.1 153.3 272.5
L 187.6 340.75
Q 188.05 341.95 188.75 343 189.5 344.2 190.55 345.25 194.35 349.05 199.65 349.05 204.95 349.05 208.7 345.25 209.85 344.1 210.65 342.85 211.45 341.6 211.9 340.25
L 243.1 273.85
Q 269.55 264.6 290.95 243.2 328.6 205.55 328.6 152.3 328.6 99.05 290.95 61.35
M 197.55 178
L 197.55 99.8 197.55 178
M 214.7 228.3
Q 214.7 235.4 209.65 240.4 204.65 245.45 197.55 245.45 190.45 245.45 185.4 240.4 180.4 235.4 180.4 228.3 180.4 221.2 185.4 216.15 190.45 211.15 197.55 211.15 204.65 211.15 209.65 216.15 214.7 221.2 214.7 228.3 Z"/>
</g>

<path id="Layer0_0_1_STROKES" stroke="#F07167" stroke-width="36" stroke-linejoin="round" stroke-linecap="round" fill="none" d="
M 197.55 178
L 197.55 99.8"/>
</defs>

<g transform="matrix( 1, 0, 0, 1, 0,0) ">
<use xlink:href="#Layer0_0_FILL"/>

<use xlink:href="#Layer0_0_1_STROKES"/>
</g>
</svg>
