<?xml version="1.0"?>
<svg xmlns="http://www.w3.org/2000/svg" xmlns:xlink="http://www.w3.org/1999/xlink" xmlns:svgjs="http://svgjs.com/svgjs" version="1.1" width="512" height="512" x="0" y="0" viewBox="0 0 512 512" style="enable-background:new 0 0 512 512" xml:space="preserve" class=""><g><g xmlns="http://www.w3.org/2000/svg"><path d="m186.343 158.744h30.014v30.016h-30.014z" fill="#fed9b7" data-original="#000000" style="" class=""/><path d="m293.704 158.744h30.014v30.016h-30.014z" fill="#fed9b7" data-original="#000000" style="" class=""/><path d="m432.546 226.705c43.036 0 78.047-35.011 78.047-78.047v-51.966l-139.885-82.045-31.064 12.653c-22.991-17.477-52.307-27.093-83.676-27.297l-1.02-.003v.003c-31.363.204-60.674 9.817-83.663 27.288l-30.918-12.651-139.898 82.052v51.965c0 43.036 35.012 78.047 78.047 78.047 11.261 0 21.962-2.416 31.641-6.728l44.735 133.261c5.434 18.366 19.648 32.558 37.209 38.498 2.732 11.768 8.83 22.343 17.862 30.623 12.012 11.014 28.19 17.079 45.552 17.079 32.298 0 57.669-20.11 63.67-48.517 15.205-5.841 27.701-17.947 33.638-33.68 8.999-23.846 41.813-102.15 55.389-134.441 7.664 2.522 15.838 3.906 24.334 3.906zm-177.031 182.719c-13.959 0-25.287-6.367-31.004-16.377 11.857-2.948 22.293-9.534 30.019-18.524 8.103 9.429 19.182 16.223 31.762 18.937-5.348 9.131-15.707 15.964-30.777 15.964zm-22.216-126.028c-4.718-2.016-7.766-6.808-7.766-12.302 0-7.431 6.045-13.476 13.476-13.476h32.374c7.431 0 13.476 6.045 13.476 13.476 0 5.365-3.172 10.294-7.894 12.266-8.75 3.655-16.277 9.141-22.179 15.871-5.715-6.738-13.006-12.213-21.487-15.835zm91.443 63.248c-4.089 10.835-14.621 18.115-26.207 18.115-15.438 0-27.996-12.56-27.996-27.997 0-10.88 7.231-21.21 17.994-25.706 16.002-6.684 26.34-22.369 26.34-39.961 0-23.981-19.509-43.49-43.49-43.49h-32.374c-23.98 0-43.49 19.509-43.49 43.583 0 17.439 10.201 33.065 25.99 39.81 10.336 4.414 17.014 14.527 17.014 25.764 0 15.438-12.56 27.997-27.997 27.997-12.397 0-23.458-8.303-26.899-20.192l-.088-.304-47.853-142.55c12.942-13.936 20.876-32.582 20.876-53.055v-54.259h-30.014v54.259c0 26.486-21.547 48.033-48.032 48.033s-48.033-21.547-48.033-48.033v-34.774l112.26-65.842 34.132 13.965 6.995-6.231c18.264-16.27 44.332-25.645 71.588-25.761 27.255.116 53.324 9.491 71.588 25.761l6.983 6.221 34.278-13.963 112.273 65.85v34.774c0 26.486-21.547 48.033-48.033 48.033-26.485 0-48.032-21.547-48.032-48.033v-54.259h-30.015v54.259c0 23.715 10.645 44.978 27.392 59.303-12.701 30.183-47.532 113.196-57.15 138.683z" fill="#fed9b7" data-original="#000000" style="" class=""/><path d="m432.296 353.532c-43.69 0-79.234 35.544-79.234 79.234s35.544 79.234 79.234 79.234 79.235-35.544 79.235-79.234-35.545-79.234-79.235-79.234zm0 128.454c-27.141 0-49.22-22.08-49.22-49.22s22.08-49.22 49.22-49.22 49.221 22.08 49.221 49.22-22.08 49.22-49.221 49.22z" fill="#fed9b7" data-original="#000000" style="" class=""/></g></g></svg>
