<?xml version="1.0"?>
<svg xmlns="http://www.w3.org/2000/svg" xmlns:xlink="http://www.w3.org/1999/xlink" xmlns:svgjs="http://svgjs.com/svgjs" version="1.1" width="512" height="512" x="0" y="0" viewBox="0 0 512 512" style="enable-background:new 0 0 512 512" xml:space="preserve" class=""><g><g xmlns="http://www.w3.org/2000/svg"><path d="m89.246 507.607c5.857 5.858 15.355 5.858 21.213 0 5.858-5.857 5.858-15.355 0-21.213l-10.607-10.607 78.949-78.949 31.82 31.82c5.857 5.858 15.355 5.859 21.213 0 5.859-5.858 5.858-15.355 0-21.213-5.849-5.849-5.849-15.365-.002-21.211l169.771-169.706c2.814-2.813 4.396-6.629 4.396-10.609v-36.227l16.754-16.806c14.119-14.118 16.642-34.847 8.801-51.228l76.051-76.052c5.858-5.858 5.858-15.355 0-21.213-5.857-5.858-15.355-5.858-21.213 0l-76.07 76.071c-16.723-7.968-37.379-5.049-51.192 8.766l-16.821 16.77h-36.228c-3.979 0-7.796 1.581-10.608 4.396l-169.703 169.769c-5.85 5.85-15.364 5.848-21.214 0-5.857-5.858-15.355-5.858-21.213 0-5.858 5.857-5.858 15.355 0 21.213l31.82 31.82-78.95 78.949-10.607-10.607c-5.856-5.858-15.354-5.858-21.213 0-5.858 5.857-5.858 15.355 0 21.213 11.402 11.402 77.543 77.544 84.853 84.854zm312.295-397.147c5.827 5.827 5.903 15.309-.017 21.229l-10.541 10.574-21.246-21.246 10.59-10.557c5.851-5.849 15.366-5.847 21.214 0zm-89.245 25.54h29.999l33.705 33.706v29.999l-6.248 6.246-10.637-10.637c-5.857-5.858-15.355-5.858-21.213 0s-5.858 15.355 0 21.213l10.633 10.633-21.218 21.21-10.629-10.63c-5.857-5.857-15.355-5.858-21.213 0s-5.858 15.355 0 21.213l10.625 10.625-21.217 21.209-10.622-10.622c-5.857-5.857-15.355-5.858-21.213 0s-5.858 15.355 0 21.213l10.617 10.617-21.217 21.209-63.652-63.652zm-165.311 165.376 10.603-10.606 63.644 63.644-10.609 10.604c-3.67 3.669-6.628 7.862-8.805 12.409-15.419-15.419-52.543-52.543-67.244-67.244 4.547-2.177 8.74-5.135 12.411-8.807zm-10.609 53.036 21.213 21.213-78.949 78.949-21.213-21.213z" fill="#fed9b7" data-original="#000000" style="" class=""/></g></g></svg>
