<?xml version="1.0"?>
<svg xmlns="http://www.w3.org/2000/svg" xmlns:xlink="http://www.w3.org/1999/xlink" xmlns:svgjs="http://svgjs.com/svgjs" version="1.1" width="512" height="512" x="0" y="0" viewBox="0 0 512.001 512.001" style="enable-background:new 0 0 512 512" xml:space="preserve" class=""><g>
<g xmlns="http://www.w3.org/2000/svg">
	<g>
		<path d="M441.703,333.332c-5.523,0-10,4.477-10,10c0,75.374-61.321,136.695-136.695,136.695s-136.695-61.321-136.695-136.695    v-20.985l55.521-102.123c39.874-27.859,58.832-78.039,52.807-139.308c14.112-4.644,24.333-17.94,24.333-33.587    c0-19.495-15.86-35.355-35.355-35.355s-35.355,15.86-35.355,35.355c0,16.38,11.199,30.19,26.34,34.187    c5.838,55.884-11.075,100.89-46.989,124.195c-31.41,20.382-72.446,20.638-104.542,0.651    c-37.149-23.134-55.348-68.392-50.547-124.89c15.063-4.049,26.187-17.819,26.187-34.143c0-19.495-15.86-35.355-35.355-35.355    S0,27.833,0,47.328c0,15.709,10.301,29.051,24.5,33.644c-5.102,63.695,16.47,115.246,59.978,142.353l53.834,99.021v20.986    c0,41.692,16.344,80.997,46.021,110.674s68.982,46.021,110.674,46.021c41.693,0,80.998-16.344,110.675-46.021    s46.021-68.981,46.021-110.674C451.703,337.809,447.226,333.332,441.703,333.332z M240.262,47.328    c0-8.467,6.888-15.355,15.355-15.355s15.355,6.888,15.355,15.355c0,8.467-6.888,15.356-15.355,15.356    S240.262,55.795,240.262,47.328z M20,47.328c0-8.467,6.888-15.355,15.355-15.355c8.467,0,15.355,6.888,15.355,15.355    c0,8.467-6.888,15.356-15.355,15.356C26.888,62.684,20,55.795,20,47.328z M114.47,236.616c10.622,3.028,21.575,4.546,32.516,4.545    c12.079,0,24.138-1.861,35.716-5.548l-34.389,63.254L114.47,236.616z" fill="#fed9b7" data-original="#000000" style="" class=""/>
	</g>
</g>
<g xmlns="http://www.w3.org/2000/svg">
	<g>
		<path d="M441.703,305.864c-5.523,0-10,4.477-10,10v0.14c0,5.523,4.477,10,10,10s10-4.477,10-10v-0.14    C451.703,310.341,447.226,305.864,441.703,305.864z" fill="#fed9b7" data-original="#000000" style="" class=""/>
	</g>
</g>
<g xmlns="http://www.w3.org/2000/svg">
	<g>
		<path d="M441.704,127.715c-38.762,0-70.297,31.645-70.297,70.542c0,35.489,26.256,64.928,60.296,69.816v20.12    c0,5.523,4.477,10,10,10s10-4.477,10-10v-20.119c34.041-4.888,60.298-34.327,60.298-69.817    C512.001,159.36,480.466,127.715,441.704,127.715z M441.704,210.592c-6.752,0-12.245-5.533-12.245-12.335    s5.493-12.335,12.245-12.335s12.245,5.534,12.245,12.335C453.949,205.059,448.456,210.592,441.704,210.592z M451.703,247.793    v-18.8c12.899-4.23,22.246-16.406,22.246-30.736c0-17.83-14.465-32.335-32.245-32.335c-17.78,0-32.245,14.506-32.245,32.335    c0,14.329,9.346,26.504,22.244,30.735v18.8c-22.959-4.673-40.296-25.106-40.296-49.535c0-27.869,22.563-50.542,50.297-50.542    s50.297,22.673,50.297,50.542C492.001,222.687,474.663,243.121,451.703,247.793z" fill="#fed9b7" data-original="#000000" style="" class=""/>
	</g>
</g>
<g xmlns="http://www.w3.org/2000/svg">
	<g>
		<path d="M295.008,342.71c-29.403,0-53.324,24-53.324,53.501c0,29.499,23.921,53.5,53.324,53.5c29.403,0,53.325-24,53.325-53.5    C348.333,366.71,324.411,342.71,295.008,342.71z M295.008,429.71c-18.375,0-33.324-15.028-33.324-33.5    s14.949-33.501,33.324-33.501s33.325,15.028,33.325,33.501C328.333,414.682,313.383,429.71,295.008,429.71z" fill="#fed9b7" data-original="#000000" style="" class=""/>
	</g>
</g>
<g xmlns="http://www.w3.org/2000/svg">
	<g>
		<path d="M358.961,287.545c-17.527,0-31.787,15.079-31.787,33.612c0,18.534,14.26,33.613,31.787,33.613    c17.528,0,31.789-15.079,31.789-33.613S376.489,287.545,358.961,287.545z M358.961,334.769c-6.5,0-11.787-6.107-11.787-13.613    c0-7.505,5.287-13.612,11.787-13.612s11.789,6.107,11.789,13.612C370.75,328.662,365.461,334.769,358.961,334.769z" fill="#fed9b7" data-original="#000000" style="" class=""/>
	</g>
</g>
<g xmlns="http://www.w3.org/2000/svg">
	<g>
		<path d="M295.713,258.028c-17.528,0-31.787,15.079-31.787,33.613s14.26,33.613,31.787,33.613    c17.528,0,31.788-15.079,31.788-33.613S313.241,258.028,295.713,258.028z M295.713,305.254c-6.499,0-11.787-6.106-11.787-13.613    c0-7.506,5.287-13.613,11.787-13.613s11.788,6.107,11.788,13.613C307.501,299.147,302.213,305.254,295.713,305.254z" fill="#fed9b7" data-original="#000000" style="" class=""/>
	</g>
</g>
<g xmlns="http://www.w3.org/2000/svg">
	<g>
		<path d="M231.055,287.544c-17.527,0-31.787,15.079-31.787,33.612c0,18.534,14.26,33.613,31.787,33.613    c17.528,0,31.788-15.079,31.788-33.613C262.843,302.623,248.583,287.544,231.055,287.544z M231.055,334.77    c-6.499,0-11.787-6.107-11.787-13.613c0-7.506,5.288-13.612,11.787-13.612c6.5,0,11.788,6.107,11.788,13.612    C242.843,328.663,237.555,334.77,231.055,334.77z" fill="#fed9b7" data-original="#000000" style="" class=""/>
	</g>
</g>
<g xmlns="http://www.w3.org/2000/svg">
</g>
<g xmlns="http://www.w3.org/2000/svg">
</g>
<g xmlns="http://www.w3.org/2000/svg">
</g>
<g xmlns="http://www.w3.org/2000/svg">
</g>
<g xmlns="http://www.w3.org/2000/svg">
</g>
<g xmlns="http://www.w3.org/2000/svg">
</g>
<g xmlns="http://www.w3.org/2000/svg">
</g>
<g xmlns="http://www.w3.org/2000/svg">
</g>
<g xmlns="http://www.w3.org/2000/svg">
</g>
<g xmlns="http://www.w3.org/2000/svg">
</g>
<g xmlns="http://www.w3.org/2000/svg">
</g>
<g xmlns="http://www.w3.org/2000/svg">
</g>
<g xmlns="http://www.w3.org/2000/svg">
</g>
<g xmlns="http://www.w3.org/2000/svg">
</g>
<g xmlns="http://www.w3.org/2000/svg">
</g>
</g></svg>
